<?xml version="1.0" encoding="UTF-8"?>
<svg width="34px" height="34px" viewBox="0 0 34 34" version="1.1" xmlns="http://www.w3.org/2000/svg" xmlns:xlink="http://www.w3.org/1999/xlink">
    <!-- Generator: Sketch 52.2 (67145) - http://www.bohemiancoding.com/sketch -->
    <title>video_pause</title>
    <desc>Created with Sketch.</desc>
    <g id="Page-1" stroke="none" stroke-width="1" fill="none" fill-rule="evenodd" opacity="0.35">
        <g id="MANASQUAN_HP_SoundVideo_Controls" transform="translate(-1406.000000, -223.000000)" fill="#FFFFFF" fill-rule="nonzero">
            <g id="video_pause" transform="translate(1406.000000, 223.000000)">
                <path d="M16.9513448,0 C7.58991379,0 0,7.58962069 0,16.9513448 C0,26.3127759 7.58991379,33.9029828 16.9513448,33.9029828 C26.3133621,33.9029828 33.9026897,26.3127759 33.9026897,16.9513448 C33.9026897,7.58962069 26.3136552,0 16.9513448,0 Z M15.1895,21.9845172 C15.1895,23.0578621 14.3192759,23.9280862 13.245931,23.9280862 C12.1725862,23.9280862 11.3023621,23.0578621 11.3023621,21.9845172 L11.3023621,11.9178793 C11.3023621,10.8445345 12.1725862,9.97431034 13.245931,9.97431034 C14.3192759,9.97431034 15.1895,10.8445345 15.1895,11.9178793 L15.1895,21.9845172 Z M22.4836724,21.9845172 C22.4836724,23.0578621 21.6134483,23.9280862 20.5401034,23.9280862 C19.4667586,23.9280862 18.5965345,23.0578621 18.5965345,21.9845172 L18.5965345,11.9178793 C18.5965345,10.8445345 19.4667586,9.97431034 20.5401034,9.97431034 C21.6134483,9.97431034 22.4836724,10.8445345 22.4836724,11.9178793 L22.4836724,21.9845172 Z" id="Shape"></path>
            </g>
        </g>
    </g>
</svg>