<?xml version="1.0" encoding="UTF-8"?>
<svg width="70px" height="70px" viewBox="0 0 70 70" version="1.1" xmlns="http://www.w3.org/2000/svg" xmlns:xlink="http://www.w3.org/1999/xlink">
    <!-- Generator: Sketch 52.4 (67378) - http://www.bohemiancoding.com/sketch -->
    <title>Shape</title>
    <desc>Created with Sketch.</desc>
    <g id="Page-1" stroke="none" stroke-width="1" fill="none" fill-rule="evenodd">
        <g id="T03_MANASQUAN_Rates" transform="translate(-423.000000, -1162.000000)" fill="#666666" fill-rule="nonzero">
            <g id="Group-20" transform="translate(325.000000, 1120.000000)">
                <g id="Group-19" transform="translate(55.000000, 0.000000)">
                    <g id="noun_Bank_913742_000000" transform="translate(43.000000, 42.000000)">
                        <path d="M68.1163636,62.3481818 L65.0427273,62.3481818 L65.0427273,58.9390909 C65.0427273,58.4363636 64.6363636,58.03 64.1336364,58.03 L60.1045455,58.03 L60.1045455,32.7272727 L64.1336364,32.7272727 C64.6363636,32.7272727 65.0427273,32.32 65.0427273,31.8181818 L65.0427273,28.1818182 L68.1163636,28.1818182 C68.1227273,28.1818182 68.13,28.1818182 68.1345455,28.1818182 C68.6372727,28.1818182 69.0436364,27.7745455 69.0436364,27.2727273 C69.0436364,26.93 68.8536364,26.6309091 68.5727273,26.4763636 L35.1845455,0.495454545 C34.8563636,0.24 34.3963636,0.24 34.0672727,0.495454545 L0.576363636,26.5554545 C0.27,26.7936364 0.149090909,27.2 0.274545455,27.5681818 C0.400909091,27.9354545 0.746363636,28.1818182 1.13454545,28.1818182 L4.20909091,28.1818182 L4.20909091,31.8181818 C4.20909091,32.32 4.61636364,32.7272727 5.11818182,32.7272727 L9.14818182,32.7272727 L9.14818182,58.03 L5.11818182,58.03 C4.61636364,58.03 4.20909091,58.4363636 4.20909091,58.9390909 L4.20909091,62.3481818 L1.13454545,62.3481818 C0.632727273,62.3481818 0.225454545,62.7545455 0.225454545,63.2572727 L0.225454545,68.9390909 C0.225454545,69.4418182 0.632727273,69.8481818 1.13454545,69.8481818 L68.1163636,69.8481818 C68.6190909,69.8481818 69.0254545,69.4418182 69.0254545,68.9390909 L69.0254545,63.2572727 C69.0254545,62.7545455 68.6181818,62.3481818 68.1163636,62.3481818 Z M28.4509091,32.7272727 L28.4509091,58.03 L21.4954545,58.03 L21.4954545,32.7272727 L28.4509091,32.7272727 Z M40.7990909,58.03 L40.7990909,32.7272727 L47.7554545,32.7272727 L47.7554545,58.03 L40.7990909,58.03 Z" id="Shape"></path>
                    </g>
                </g>
            </g>
        </g>
    </g>
</svg>