<?xml version="1.0" encoding="UTF-8"?>
<svg width="48px" height="60px" viewBox="0 0 48 60" version="1.1" xmlns="http://www.w3.org/2000/svg" xmlns:xlink="http://www.w3.org/1999/xlink">
    <!-- Generator: Sketch 52.4 (67378) - http://www.bohemiancoding.com/sketch -->
    <title>noun_sales order_1589691_000000</title>
    <desc>Created with Sketch.</desc>
    <g id="Page-1" stroke="none" stroke-width="1" fill="none" fill-rule="evenodd">
        <g id="T03_MANASQUAN_Rates" transform="translate(-776.000000, -909.000000)" fill="#666666" fill-rule="nonzero">
            <g id="Group-24" transform="translate(673.000000, 862.000000)">
                <g id="Group-23" transform="translate(50.000000, 0.000000)">
                    <g id="noun_sales-order_1589691_000000" transform="translate(53.000000, 47.000000)">
                        <path d="M42,0 L15,0 L0,15 L0,54 C0,57.3136596 2.6863404,60 6,60 L42,60 C45.3136596,60 48,57.3136596 48,54 L48,6 C48,2.6861571 45.3136596,0 42,0 Z M18,18 L4.5,18 L18,4.5 L18,18 Z M32.5585326,48.0336915 L32.5585326,50.9963379 L27.4414671,50.9963379 L27.4414671,48.1951905 C24.9343869,47.9049684 22.7916867,47.0820924 20.9802243,45.2189943 L24.6875607,41.5133058 C25.9125363,42.7368165 28.063293,43.1680299 29.9501949,43.1680299 C32.2344357,43.1680299 33.3273921,42.4064943 33.3273921,41.0496828 C33.3273921,40.4864505 33.1939083,40.0228272 32.8637691,39.6588138 C32.5658565,39.3609012 32.068542,39.1292727 31.3070064,39.0294804 L28.4609982,38.6334234 C26.3748777,38.3355108 24.7873533,37.6400763 23.7280881,36.5471196 C22.6351317,35.4217533 22.1054073,33.8329473 22.1054073,31.8142095 C22.1054073,28.4802252 24.0701289,25.8618168 27.4414668,24.8421027 L27.4414668,20.9963379 L32.5585323,20.9963379 L32.5585323,24.4863282 C35.0311887,24.7478028 37.0285029,25.552002 38.6559444,27.1794435 L35.0147091,30.8208621 C33.5253291,29.3303835 31.5725094,29.4301761 30.5456538,29.4301761 C28.526916,29.4301761 27.6996456,30.5892336 27.6996456,31.6146243 C27.6996456,31.9125369 27.7994382,32.3437503 28.1630856,32.707764 C28.4609982,33.0056766 28.9568478,33.3034062 29.7843015,33.4030155 L32.6317746,33.7994388 C34.750305,34.09845 36.2731932,34.76001 37.2665403,35.7533574 C38.5239255,36.9768681 39.0197751,38.7315678 39.0197751,40.916016 C39.0197754,44.8253175 36.2589111,47.255127 32.5585326,48.0336915 Z" id="Shape"></path>
                    </g>
                </g>
            </g>
        </g>
    </g>
</svg>