<?xml version="1.0" encoding="UTF-8"?>
<svg width="34px" height="34px" viewBox="0 0 34 34" version="1.1" xmlns="http://www.w3.org/2000/svg" xmlns:xlink="http://www.w3.org/1999/xlink">
    <!-- Generator: Sketch 52.2 (67145) - http://www.bohemiancoding.com/sketch -->
    <title>sound_off</title>
    <desc>Created with Sketch.</desc>
    <g id="Page-1" stroke="none" stroke-width="1" fill="none" fill-rule="evenodd" opacity="0.35">
        <g id="MANASQUAN_HP_SoundVideo_Controls" transform="translate(-1352.000000, -223.000000)" fill="#FFFFFF" fill-rule="nonzero">
            <path d="M1369,257 C1359.61116,257 1352,249.388841 1352,240 C1352,230.611159 1359.61116,223 1369,223 C1378.38884,223 1386,230.611159 1386,240 C1386,249.388841 1378.38884,257 1369,257 Z M1367.04918,244.538958 C1366.95504,244.667263 1366.97815,244.849467 1367.10114,244.948646 L1371.85068,248.663542 C1372.43571,249.051458 1373.16892,248.73875 1373.16892,248.089583 L1373.16892,236.729167 C1373.16678,236.655767 1373.11961,236.591841 1373.05145,236.569963 C1372.98329,236.548085 1372.90914,236.573071 1372.86679,236.632187 L1367.04918,244.538958 Z M1374.78161,244.574583 C1376.79357,244.574583 1378.42459,242.89719 1378.42459,240.828021 C1378.42459,238.758852 1376.79357,237.081458 1374.78161,237.081458 C1374.5818,237.081458 1374.41981,237.248046 1374.41981,237.453542 C1374.41981,237.659038 1374.5818,237.825625 1374.78161,237.825625 C1376.39394,237.825625 1377.701,239.169843 1377.701,240.828021 C1377.701,242.486198 1376.39394,243.830417 1374.78161,243.830417 C1374.5818,243.830417 1374.41981,243.997004 1374.41981,244.2025 C1374.41981,244.407996 1374.5818,244.574583 1374.78161,244.574583 Z M1374.80278,242.955625 L1374.80278,242.947708 C1375.94534,242.947708 1376.87156,241.995148 1376.87156,240.820104 C1376.87156,239.645061 1375.94534,238.6925 1374.80278,238.6925 C1374.61266,238.70675 1374.4655,238.869534 1374.4655,239.065573 C1374.4655,239.261612 1374.61266,239.424396 1374.80278,239.438646 C1375.54677,239.438646 1376.14989,240.058918 1376.14989,240.824062 C1376.14989,241.589207 1375.54677,242.209479 1374.80278,242.209479 C1374.61266,242.223729 1374.4655,242.386513 1374.4655,242.582552 C1374.4655,242.778591 1374.61266,242.941375 1374.80278,242.955625 Z M1374.96251,230.265208 C1374.78479,230.122007 1374.55846,230.058503 1374.33466,230.089043 C1374.11085,230.119584 1373.90845,230.241592 1373.7732,230.4275 L1371.92573,232.941042 L1371.84875,232.984583 L1366.01575,237.441667 L1363.12908,237.441667 C1362.25936,237.449288 1361.56003,238.180017 1361.56643,239.074479 L1361.56643,242.425208 C1361.56217,243.31857 1362.26235,244.046633 1363.131,244.052083 L1363.73913,244.052083 L1361.21426,247.493854 C1360.9295,247.882286 1360.99875,248.433535 1361.37014,248.734792 C1361.54785,248.877993 1361.77418,248.941497 1361.99799,248.910957 C1362.22179,248.880416 1362.42419,248.758408 1362.55944,248.5725 L1375.11839,231.506146 C1375.40314,231.117714 1375.3339,230.566465 1374.96251,230.265208 Z" id="sound_off"></path>
        </g>
    </g>
</svg>