<?xml version="1.0" encoding="UTF-8"?>
<svg width="34px" height="34px" viewBox="0 0 34 34" version="1.1" xmlns="http://www.w3.org/2000/svg" xmlns:xlink="http://www.w3.org/1999/xlink">
    <!-- Generator: Sketch 52.2 (67145) - http://www.bohemiancoding.com/sketch -->
    <title>sound_on</title>
    <desc>Created with Sketch.</desc>
    <g id="Page-1" stroke="none" stroke-width="1" fill="none" fill-rule="evenodd" opacity="0.35">
        <g id="MANASQUAN_HP_SoundVideo_Controls" transform="translate(-1335.000000, -298.000000)" fill="#FFFFFF" fill-rule="nonzero">
            <path d="M1352,332 C1342.61116,332 1335,324.388841 1335,315 C1335,305.611159 1342.61116,298 1352,298 C1361.38884,298 1369,305.611159 1369,315 C1369,324.388841 1361.38884,332 1352,332 Z M1356.19824,309.189938 C1356.23537,307.874027 1356.19937,307.144047 1356.09023,307 C1355.92737,306.785039 1355.47901,306.785039 1354.74515,307 L1349.01575,312.441667 L1346.12908,312.441667 C1345.25936,312.449288 1344.56003,313.180017 1344.56643,314.074479 L1344.56643,317.425208 C1344.56217,318.31857 1345.26235,319.046633 1346.131,319.052083 L1349.01575,319.052083 L1349.06201,319.00309 L1354.85068,323.663542 C1355.43571,324.051458 1356.16892,323.73875 1356.16892,323.089583 L1356.16892,311.729167 C1356.16759,311.683572 1356.19422,310.264084 1356.19824,309.189938 Z M1357.78161,319.574583 C1359.79357,319.574583 1361.42459,317.89719 1361.42459,315.828021 C1361.42459,313.758852 1359.79357,312.081458 1357.78161,312.081458 C1357.5818,312.081458 1357.41981,312.248046 1357.41981,312.453542 C1357.41981,312.659038 1357.5818,312.825625 1357.78161,312.825625 C1359.39394,312.825625 1360.701,314.169843 1360.701,315.828021 C1360.701,317.486198 1359.39394,318.830417 1357.78161,318.830417 C1357.5818,318.830417 1357.41981,318.997004 1357.41981,319.2025 C1357.41981,319.407996 1357.5818,319.574583 1357.78161,319.574583 Z M1357.80278,317.955625 L1357.80278,317.947708 C1358.94534,317.947708 1359.87156,316.995148 1359.87156,315.820104 C1359.87156,314.645061 1358.94534,313.6925 1357.80278,313.6925 C1357.61266,313.70675 1357.4655,313.869534 1357.4655,314.065573 C1357.4655,314.261612 1357.61266,314.424396 1357.80278,314.438646 C1358.54677,314.438646 1359.14989,315.058918 1359.14989,315.824063 C1359.14989,316.589207 1358.54677,317.209479 1357.80278,317.209479 C1357.61266,317.223729 1357.4655,317.386513 1357.4655,317.582552 C1357.4655,317.778591 1357.61266,317.941375 1357.80278,317.955625 Z" id="sound_on"></path>
        </g>
    </g>
</svg>