<?xml version="1.0" encoding="UTF-8"?>
<svg width="34px" height="34px" viewBox="0 0 34 34" version="1.1" xmlns="http://www.w3.org/2000/svg" xmlns:xlink="http://www.w3.org/1999/xlink">
    <!-- Generator: Sketch 52.2 (67145) - http://www.bohemiancoding.com/sketch -->
    <title>video_play</title>
    <desc>Created with Sketch.</desc>
    <g id="Page-1" stroke="none" stroke-width="1" fill="none" fill-rule="evenodd" opacity="0.35">
        <g id="MANASQUAN_HP_SoundVideo_Controls" transform="translate(-1382.000000, -298.000000)" fill="#FFFFFF" fill-rule="nonzero">
            <g id="video_play" transform="translate(1382.000000, 298.000000)">
                <path d="M17,0.193538462 C7.718,0.193538462 0.193538462,7.7185812 0.193538462,17 C0.193538462,26.2817094 7.718,33.8064615 17,33.8064615 C26.282,33.8064615 33.8064615,26.2817094 33.8064615,17 C33.8064615,7.7185812 26.282,0.193538462 17,0.193538462 Z M23.2571624,17.9261368 L13.5590256,23.525094 C13.4111111,23.6108205 13.2454701,23.6532479 13.0804103,23.6532479 C12.9153504,23.6532479 12.75,23.6108205 12.6015043,23.525094 C12.3056752,23.3542222 12.1231795,23.0380513 12.1231795,22.6957265 L12.1231795,11.4975214 C12.1231795,11.1554872 12.3059658,10.838735 12.6015043,10.6681538 C12.8982051,10.4969915 13.2631966,10.4969915 13.5596068,10.6681538 L23.2577436,16.2674017 C23.5541538,16.4388547 23.7366496,16.7550256 23.7360684,17.0967692 C23.7360684,17.4388034 23.5538632,17.755265 23.2571624,17.9261368 Z" id="Shape"></path>
            </g>
        </g>
    </g>
</svg>