<?xml version="1.0" encoding="UTF-8"?>
<svg width="85px" height="84px" viewBox="0 0 85 84" version="1.1" xmlns="http://www.w3.org/2000/svg" xmlns:xlink="http://www.w3.org/1999/xlink">
    <!-- Generator: Sketch 52.4 (67378) - http://www.bohemiancoding.com/sketch -->
    <title>Group 10</title>
    <desc>Created with Sketch.</desc>
    <g id="Page-1" stroke="none" stroke-width="1" fill="none" fill-rule="evenodd">
        <g id="T03_MANASQUAN_Digital_Services" transform="translate(-612.000000, -897.000000)" fill="#666666" fill-rule="nonzero">
            <g id="Group-24" transform="translate(577.333333, 862.000000)">
                <g id="Group-23">
                    <g id="Group-10" transform="translate(35.000000, 35.000000)">
                        <g id="noun_payment_1168142_000000">
                            <path d="M83.4490982,29.5844372 L67.7925788,3.24757857 C65.9350256,0.0659446413 62.4852841,-0.817842562 59.8316367,0.772974404 L18.0809184,25.6073948 C15.7810907,26.9330756 14.8080867,29.6728159 15.8695456,32.4125563 C12.2428942,34.710403 6.31641515,57.3353554 6.31641515,57.3353554 L1.18603027,61.577534 C0.0361164195,62.5496999 -0.317703227,64.1405169 0.301481155,65.5545764 L9.32388215,82.3465332 C10.1199764,83.7605928 11.8006197,84.3792438 13.3043532,83.7605928 C16.1349103,82.5232907 20.8230207,80.7557163 25.0688564,80.1370652 C28.3416882,79.6951716 32.4106141,76.5135377 33.0297985,75.6297505 C35.1527164,73.0667676 56.6472599,46.6415302 56.6472599,46.6415302 C58.7701778,43.9901686 58.2394483,40.0131262 55.4088911,38.0687944 C52.8436987,36.30122 49.3055022,36.919871 47.2710393,39.3060965 L37.0987244,51.767496 C35.506536,53.7118279 32.5875239,53.4466917 31.3491552,51.3256024 L26.0418605,42.3993517 L70.7115909,15.7973569 L79.7339919,30.910118 C80.1762664,31.7055265 79.9109017,32.7660712 79.1148075,33.2963435 L62.0430095,43.4598963 C62.0430095,43.548275 62.0430095,43.548275 62.0430095,43.6366537 C62.0430095,44.9623346 61.600735,46.2880154 60.7161858,47.34856 L50.2785063,60.1634744 L50.543871,60.605368 C51.6053299,62.5496999 54.0820675,63.1683509 56.0280755,62.1078063 L56.6472599,61.7542914 C58.593268,60.6937468 59.3893622,58.3959 58.8586327,56.3631895 C59.3009073,56.5399469 59.7431818,56.5399469 60.1854564,56.5399469 C60.9815506,56.5399469 61.7776448,56.3631895 62.4852841,55.9212959 C64.6966569,54.6839938 65.4927511,51.767496 64.2543823,49.558028 C64.6966569,49.7347854 65.1389314,49.7347854 65.6696609,49.7347854 C66.4657551,49.7347854 67.2618493,49.558028 67.9694886,49.1161344 C70.0924065,47.967211 70.8885007,45.3158494 69.9154967,43.1947601 L81.1492705,36.5663561 C83.8029178,35.0639179 84.6874669,31.6171478 83.4490982,29.5844372 Z M21.7960247,35.2406753 L19.4077421,31.2636329 C18.8770126,30.4682244 19.2308323,29.4076798 20.0269265,28.8774075 L61.7776448,4.04298705 C62.573739,3.60109345 63.6351979,3.86622961 64.1659274,4.6616381 L66.55421,8.63868051 L21.7960247,35.2406753 Z" id="Shape"></path>
                            <path d="M65.4144831,36.1859977 L73.3600331,31.4771236 C74.1635157,31.0328902 74.4313432,29.96673 73.984964,29.1671098 L71.3066888,24.635929 C70.8603095,23.8363089 69.7889994,23.5697689 68.9855169,24.0140023 L61.0399669,28.7228764 C60.2364843,29.1671098 59.9686568,30.23327 60.415036,31.0328902 L63.0933112,35.564071 C63.5396905,36.3636911 64.6110006,36.6302311 65.4144831,36.1859977 Z" id="Shape"></path>
                        </g>
                    </g>
                </g>
            </g>
        </g>
    </g>
</svg>