<?xml version="1.0" encoding="UTF-8"?>
<svg width="88px" height="80px" viewBox="0 0 88 80" version="1.1" xmlns="http://www.w3.org/2000/svg" xmlns:xlink="http://www.w3.org/1999/xlink">
    <!-- Generator: Sketch 52.4 (67378) - http://www.bohemiancoding.com/sketch -->
    <title>Group 10</title>
    <desc>Created with Sketch.</desc>
    <g id="Page-1" stroke="none" stroke-width="1" fill="none" fill-rule="evenodd">
        <g id="T03_MANASQUAN_Digital_Services" transform="translate(-920.000000, -1160.000000)" fill="#666666" fill-rule="nonzero">
            <g id="Group-24" transform="translate(887.000000, 1120.000000)">
                <g id="Group-23">
                    <g id="Group-10" transform="translate(33.000000, 40.000000)">
                        <g id="noun_Monitor_180182_000000">
                            <path d="M65.1,77.1707317 C65.1,78.5365854 64,79.5121951 62.7,79.5121951 L25.2,79.5121951 C23.8,79.5121951 22.8,78.4390244 22.8,77.1707317 C22.8,75.902439 23.9,74.8292683 25.2,74.8292683 L24.9,74.8292683 C29.2,74.3414634 31.5,72.5853659 32.8,70.9268293 L55.2,70.9268293 C56.4,72.5853659 58.7,74.3414634 63.1,74.8292683 L62.7,74.8292683 C64,74.8292683 65.1,75.902439 65.1,77.1707317 Z M44,16.6829268 C35.9,16.6829268 29.4,23.1219512 29.4,30.9268293 C29.4,38.8292683 36,45.1707317 44,45.1707317 C52.1,45.1707317 58.6,38.7317073 58.6,30.9268293 C58.6,23.1219512 52.1,16.6829268 44,16.6829268 Z M48.7,37.3658537 C48,38.2439024 47,38.8292683 45.9,39.1219512 C45.4,39.2195122 45.2,39.5121951 45.2,40 C45.2,40.4878049 45.2,40.9756098 45.2,41.4634146 C45.2,41.8536585 45,42.1463415 44.5,42.1463415 C44,42.1463415 43.4,42.1463415 42.9,42.1463415 C42.4,42.1463415 42.2,41.8536585 42.2,41.4634146 C42.2,41.0731707 42.2,40.7804878 42.2,40.3902439 C42.2,39.6097561 42.2,39.6097561 41.4,39.5121951 C40.4,39.3170732 39.5,39.1219512 38.6,38.7317073 C37.9,38.4390244 37.8,38.2439024 38,37.5609756 C38.1,37.0731707 38.3,36.4878049 38.5,36 C38.7,35.4146341 38.9,35.3170732 39.4,35.6097561 C40.4,36.097561 41.4,36.3902439 42.5,36.4878049 C43.2,36.5853659 43.9,36.4878049 44.5,36.195122 C45.7,35.7073171 45.9,34.3414634 44.9,33.4634146 C44.6,33.1707317 44.2,32.9756098 43.7,32.7804878 C42.6,32.2926829 41.5,32 40.5,31.4146341 C38.9,30.4390244 37.8,29.1707317 38,27.2195122 C38.1,25.0731707 39.4,23.7073171 41.5,22.9268293 C42.3,22.6341463 42.4,22.6341463 42.4,21.7560976 C42.4,21.4634146 42.4,21.1707317 42.4,20.8780488 C42.4,20.195122 42.5,20.097561 43.2,20.097561 C43.4,20.097561 43.6,20.097561 43.8,20.097561 C45.2,20.097561 45.2,20.097561 45.2,21.4634146 C45.2,22.4390244 45.2,22.4390244 46.2,22.6341463 C47,22.7317073 47.7,22.9268293 48.4,23.3170732 C48.8,23.5121951 48.9,23.7073171 48.8,24.195122 C48.6,24.7804878 48.5,25.3658537 48.3,25.9512195 C48.1,26.5365854 47.9,26.6341463 47.4,26.3414634 C46.3,25.8536585 45.1,25.5609756 43.9,25.6585366 C43.6,25.6585366 43.3,25.7560976 43,25.8536585 C41.9,26.3414634 41.8,27.4146341 42.7,28.195122 C43.2,28.5853659 43.7,28.7804878 44.2,29.0731707 C45.1,29.4634146 46.1,29.8536585 47,30.3414634 C50,31.5121951 50.7,35.0243902 48.7,37.3658537 Z M87.9,51.4146341 L87.9,6.63414634 C87.9,3.2195122 85,0.390243902 81.5,0.390243902 L6.5,0.390243902 C3,0.390243902 0.1,3.2195122 0.1,6.63414634 L0.1,52.4878049 C0.1,52.4878049 0.1,52.5853659 0.1,52.5853659 L0.1,60.8780488 C0.1,60.8780488 0.1,60.9756098 0.1,60.9756098 L0.1,61.4634146 C0.1,61.4634146 0.1,61.5609756 0.1,61.5609756 L0.1,61.6585366 C0.2,64.5853659 2.7,66.9268293 5.7,66.9268293 L31.6,66.9268293 L34.2,66.9268293 L53.8,66.9268293 L55.4,66.9268293 L82.3,66.9268293 C85.3,66.9268293 87.8,64.5853659 87.9,61.6585366 L87.9,51.4146341 Z M49.1,60.9756098 C49.1,61.7560976 48.5,62.3414634 47.7,62.3414634 L40.3,62.3414634 C39.5,62.3414634 38.9,61.7560976 38.9,60.9756098 L38.9,60 C38.9,59.2195122 39.5,58.6341463 40.3,58.6341463 L47.7,58.6341463 C48.5,58.6341463 49.1,59.2195122 49.1,60 L49.1,60.9756098 Z M44,48.9756098 C33.8,48.9756098 25.6,40.8780488 25.6,31.0243902 C25.6,21.0731707 33.9,13.0731707 44,13.0731707 C54.2,13.0731707 62.4,21.1707317 62.4,31.0243902 C62.4,40.8780488 54.2,48.9756098 44,48.9756098 Z" id="Shape"></path>
                        </g>
                    </g>
                </g>
            </g>
        </g>
    </g>
</svg>