<?xml version="1.0" encoding="UTF-8"?>
<svg width="89px" height="62px" viewBox="0 0 89 62" version="1.1" xmlns="http://www.w3.org/2000/svg" xmlns:xlink="http://www.w3.org/1999/xlink">
    <!-- Generator: Sketch 52.4 (67378) - http://www.bohemiancoding.com/sketch -->
    <title>noun_Alert_1423459_000000</title>
    <desc>Created with Sketch.</desc>
    <g id="Page-1" stroke="none" stroke-width="1" fill="none" fill-rule="evenodd">
        <g id="T03_MANASQUAN_Digital_Services" transform="translate(-291.000000, -908.000000)" fill="#666666">
            <g id="Group-20" transform="translate(250.000000, 862.000000)">
                <g id="Group-19" transform="translate(9.000000, 0.000000)">
                    <g id="noun_Alert_1423459_000000" transform="translate(32.000000, 46.000000)">
                        <path d="M9.1,32.9 C5.8,24.1 6.3,14.3 10.5,5.9 C11.2,4.4 10.5,2.6 9,1.9 C7.6,1.2 5.9,1.8 5.1,3.2 C0.1,13.1 -0.5,24.6 3.4,35 C4,36.6 5.7,37.3 7.3,36.8 C8.9,36.3 9.7,34.4 9.1,32.9 Z" id="Path"></path>
                        <path d="M84.8,3.2 C84.1,1.7 82.3,1.1 80.8,1.9 C79.3,2.6 78.7,4.4 79.5,5.9 C83.7,14.3 84.2,24.1 80.9,32.9 C80.3,34.4 81.1,36.2 82.6,36.8 C84.1,37.4 85.9,36.6 86.5,35.1 C90.4,24.6 89.8,13.1 84.8,3.2 Z" id="Path"></path>
                        <path d="M15.8,29 C17.4,28.7 18.4,27.2 18.1,25.6 C17.5,22.1 17.6,18.6 18.4,15.2 C18.8,13.6 17.8,12 16.2,11.6 C14.6,11.2 13,12.2 12.6,13.8 C11.6,18 11.5,22.4 12.2,26.7 C12.5,28.3 14.1,29.3 15.8,29 Z" id="Path"></path>
                        <path d="M71.6,15.1 C72.4,18.5 72.5,22.1 71.9,25.5 C71.6,27.1 72.7,28.7 74.3,29 C75.9,29.3 77.5,28.2 77.8,26.6 C78.6,22.3 78.5,17.9 77.5,13.7 C77.2,12.1 75.6,11 74,11.3 C72.4,11.6 71.3,13.2 71.6,14.8 C71.6,14.9 71.6,15 71.6,15.1 Z" id="Path"></path>
                        <path d="M65.3,39.2 C62.3,36 61,32.7 61,28.6 L61,24 C61,18.3 57.9,13.1 53,10.3 L53,8.4 C53,4.1 49.5,0.6 45.2,0.6 C40.9,0.6 37.4,4.1 37.4,8.4 L37.4,10.4 C32.4,13.3 29.4,18.7 29.4,24.5 L29.4,28.6 C29.4,32.7 28.1,36 25.1,39.2 C21.8,39.4 19.2,42.1 19.2,45.5 L19.2,47.1 C19.2,50.6 22,53.4 25.5,53.4 L36.3,53.4 C36.9,58.4 41.3,61.9 46.3,61.4 C50.5,60.9 53.8,57.6 54.3,53.4 L65,53.4 C68.5,53.4 71.3,50.6 71.3,47.1 L71.3,45.5 C71.2,42.1 68.6,39.4 65.3,39.2 Z" id="Path"></path>
                    </g>
                </g>
            </g>
        </g>
    </g>
</svg>