<?xml version="1.0" encoding="UTF-8"?>
<svg width="64px" height="64px" viewBox="0 0 64 64" version="1.1" xmlns="http://www.w3.org/2000/svg" xmlns:xlink="http://www.w3.org/1999/xlink">
    <!-- Generator: Sketch 52.4 (67378) - http://www.bohemiancoding.com/sketch -->
    <title>noun_capture_976527_000000</title>
    <desc>Created with Sketch.</desc>
    <g id="Page-1" stroke="none" stroke-width="1" fill="none" fill-rule="evenodd">
        <g id="T03_MANASQUAN_Digital_Services" transform="translate(-624.000000, -1166.000000)" fill="#666666" fill-rule="nonzero">
            <g id="Group-22" transform="translate(525.000000, 1120.000000)">
                <g id="Group-12" transform="translate(53.000000, 0.000000)">
                    <g id="noun_capture_976527_000000" transform="translate(46.000000, 46.000000)">
                        <path d="M64,6 L64,22 L56,22 L56,8 L42,8 L42,0 L58,0 C61.3137085,0 64,2.6862915 64,6 Z M0,6 L0,22 L8,22 L8,8 L22,8 L22,0 L6,0 C2.6862915,0 0,2.6862915 0,6 Z M22,64 L22,56 L8,56 L8,42 L0,42 L0,58 C0,61.3137085 2.6862915,64 6,64 L22,64 Z M56,56 L42,56 L42,64 L58,64 C61.3137085,64 64,61.3137085 64,58 L64,42 L56,42 L56,56 Z M28,18 L28,28 L18,28 L18,36 L28,36 L28,46 L36,46 L36,36 L46,36 L46,28 L36,28 L36,18 L28,18 Z" id="Shape"></path>
                    </g>
                </g>
            </g>
        </g>
    </g>
</svg>