<?xml version="1.0" standalone="no"?>
<!DOCTYPE svg PUBLIC "-//W3C//DTD SVG 1.1//EN" "http://www.w3.org/Graphics/SVG/1.1/DTD/svg11.dtd" >
<svg xmlns="http://www.w3.org/2000/svg" xmlns:xlink="http://www.w3.org/1999/xlink" version="1.1">
<metadata></metadata>
<defs>
<font id="archivo_narrowmedium" horiz-adv-x="933" >
<font-face units-per-em="2048" ascent="1638" descent="-410" />
<missing-glyph horiz-adv-x="466" />
<glyph horiz-adv-x="0" />
<glyph unicode="&#xd;" horiz-adv-x="466" />
<glyph horiz-adv-x="0" />
<glyph horiz-adv-x="0" />
<glyph unicode=" "  horiz-adv-x="466" />
<glyph unicode="&#x09;" horiz-adv-x="466" />
<glyph unicode="&#xa0;" horiz-adv-x="466" />
<glyph unicode="!" horiz-adv-x="495" d="M123 1405h258l-62 -1038h-139zM137 0v240h230v-240h-230z" />
<glyph unicode="&#x22;" horiz-adv-x="659" d="M82 1104v301h192v-301l-43 -270h-104zM385 1104v301h193v-301l-43 -270h-107z" />
<glyph unicode="#" d="M16 377v162h166l68 307h-154v162h191l94 419h164l-94 -419h174l94 419h164l-95 -419h123v-162h-159l-68 -307h147v-162h-184l-84 -377h-164l84 377h-174l-84 -377h-164l84 377h-129zM346 539h174l68 307h-174z" />
<glyph unicode="$" d="M96 463q0 23 1 30t1 9h187v-19q0 -78 33.5 -123t93.5 -59v342q-92 31 -152.5 62.5t-101.5 91t-41 155.5q0 131 79.5 212t215.5 98v219h104v-217q135 -10 214 -92t79 -201l-2 -41h-184v18q0 59 -27 101.5t-80 56.5v-305q98 -31 161.5 -62.5t108.5 -94t45 -167.5 q0 -160 -84.5 -241.5t-230.5 -94.5v-241h-104v241q-156 12 -236 102.5t-80 219.5zM303 967q0 -47 27.5 -77t81.5 -52v268q-57 -12 -83 -52t-26 -87zM516 297q57 12 93 50t36 104q0 57 -33.5 93t-95.5 62v-309z" />
<glyph unicode="%" horiz-adv-x="1492" d="M86 1059q0 205 67.5 288t200.5 83t201 -83t68 -288q0 -203 -68 -286t-201 -83t-200.5 83t-67.5 286zM240 1044q0 -109 24.5 -167t89.5 -58q66 0 90.5 58.5t24.5 166.5v31q0 109 -24.5 167t-90.5 58t-90 -58t-24 -167v-31zM250 0l856 1405h154l-859 -1405h-151zM883 344 q0 203 67.5 287t200.5 84t201.5 -84t68.5 -287t-67.5 -286t-202.5 -83q-133 0 -200.5 83t-67.5 286zM1038 330q0 -109 24.5 -167.5t88.5 -58.5q66 0 90.5 57.5t24.5 168.5v30q0 111 -24.5 168.5t-90.5 57.5q-63 0 -88 -57.5t-25 -168.5v-30z" />
<glyph unicode="&#x26;" horiz-adv-x="1148" d="M72 377q0 133 59 220t158 124v8q-90 49 -140.5 124t-50.5 191q0 184 119 285t322 101q127 0 225 -48.5t153.5 -135.5t55.5 -202v-43h-193v25q0 117 -65.5 175.5t-177.5 58.5q-104 0 -169 -56.5t-65 -169.5t59.5 -175t149.5 -62h98v-166h-92q-242 0 -242 -242 q0 -123 68 -183.5t186 -60.5q250 0 250 246v406h342v-168h-149v-232q0 -197 -117 -309.5t-334 -112.5q-200 0 -325 109t-125 293z" />
<glyph unicode="'" horiz-adv-x="346" d="M74 1104v301h192v-301l-43 -270h-104z" />
<glyph unicode="(" horiz-adv-x="559" d="M76 590q0 252 84 489.5t241 425.5h127q-117 -199 -189.5 -440.5t-72.5 -470.5t73 -474t189 -442h-127q-157 189 -241 424.5t-84 487.5z" />
<glyph unicode=")" horiz-adv-x="559" d="M31 -322q116 197 189 442t73 474t-73 471t-189 440h127q158 -188 241.5 -425.5t83.5 -489.5t-84 -487.5t-241 -424.5h-127z" />
<glyph unicode="*" horiz-adv-x="653" d="M41 1038l176 82l-176 82l74 123l157 -111l-18 191h145l-18 -188l158 108l71 -123l-174 -82l174 -82l-71 -125l-158 111l18 -190h-145l18 190l-157 -111z" />
<glyph unicode="+" horiz-adv-x="980" d="M82 430v184h315v433h183v-433h317v-184h-317v-430h-183v430h-315z" />
<glyph unicode="," horiz-adv-x="466" d="M119 0v240h229v-220l-110 -294h-119l92 274h-92z" />
<glyph unicode="-" horiz-adv-x="559" d="M25 446v213h507v-213h-507z" />
<glyph unicode="." horiz-adv-x="466" d="M119 0v240h229v-240h-229z" />
<glyph unicode="/" horiz-adv-x="466" d="M2 -100l311 1605h154l-309 -1605h-156z" />
<glyph unicode="0" d="M76 702q0 279 45 438.5t131 224.5t215 65t214 -66t131 -224.5t46 -437.5t-46 -437.5t-131 -224t-214 -65.5t-215 64.5t-131 224.5t-45 438zM274 631q0 -242 42 -365t151 -123q108 0 150 123t42 365v143q0 242 -42 365t-150 123q-109 0 -151 -123t-42 -365v-143z" />
<glyph unicode="1" d="M94 1128v125q92 10 218 52.5t220 99.5h84v-1237h302v-168h-822v168h328v960h-330z" />
<glyph unicode="2" d="M76 0v33q0 172 114 334q57 80 175 204q94 104 148 173t92 152t38 171q0 78 -40 133t-130 55q-94 0 -137 -69.5t-43 -179.5v-84h-199q-2 6 -4 28.5t-2 53.5q0 213 109.5 319.5t279.5 106.5q164 0 266.5 -90.5t102.5 -274.5q0 -115 -47 -220.5t-112.5 -189.5t-170.5 -200 q-111 -123 -162 -195q-27 -35 -39 -70h537v-190h-776z" />
<glyph unicode="3" d="M66 397v23h198v-29q0 -121 49 -184.5t144 -63.5q94 0 148 61.5t54 184.5q0 242 -210 242h-101v166h105q78 0 130 61.5t52 175.5q0 115 -47 171.5t-125 56.5q-82 0 -128 -59.5t-46 -176.5v-25h-199v43q0 115 47 202t131 135.5t193 48.5q170 0 271.5 -100.5t101.5 -285.5 q0 -117 -48.5 -191.5t-134.5 -123.5v-8q94 -35 150.5 -123t56.5 -221q0 -184 -108.5 -293t-282.5 -109q-193 0 -297 114t-104 308z" />
<glyph unicode="4" d="M33 338v166q111 197 206 441.5t156 484.5h193q-35 -172 -107.5 -362.5t-149.5 -344.5t-122 -219h356v403q57 135 101 314h92v-717h143v-166h-143v-338h-193v338h-532z" />
<glyph unicode="5" d="M76 436h198q0 -133 56.5 -214t144.5 -81q90 0 144.5 82t54.5 236q0 135 -51.5 210.5t-133.5 75.5q-63 0 -112 -39.5t-78 -107.5l-184 29l47 778h651v-191h-483l-25 -397q100 96 234 96q147 0 240 -115.5t93 -338.5q0 -229 -105 -356.5t-292 -127.5q-182 0 -290.5 124 t-108.5 337z" />
<glyph unicode="6" d="M76 662q0 287 46 455.5t133 240.5t218 72q176 0 262 -125t86 -332h-194q0 139 -40 214t-122 75q-111 0 -150 -124t-43 -382q43 61 104.5 94t135.5 33q168 0 257 -126t89 -327q0 -137 -48 -240.5t-133 -159t-192 -55.5q-202 0 -305.5 157t-103.5 530zM287 430 q0 -127 48 -207t140 -80t139.5 80t47.5 207t-47.5 208t-139.5 81t-140 -81t-48 -208z" />
<glyph unicode="7" d="M61 1214v191h811v-127q-180 -270 -304 -571t-124 -603q0 -55 2 -104h-215q0 322 120 637t294 577h-584z" />
<glyph unicode="8" d="M76 385q0 246 180 336q-74 49 -113 132t-39 185q0 170 95.5 281t267.5 111t267 -111t95 -281q0 -102 -38.5 -185t-114.5 -132q182 -90 182 -336q0 -182 -97 -296t-294 -114t-294 114t-97 296zM272 389q0 -117 50.5 -181.5t144.5 -64.5t144.5 64.5t50.5 181.5t-50.5 181.5 t-144.5 64.5t-144.5 -64.5t-50.5 -181.5zM297 1032q0 -109 46 -170t124 -61q80 0 126 61.5t46 169.5q0 109 -46 169.5t-126 60.5t-125 -60.5t-45 -169.5z" />
<glyph unicode="9" d="M76 975q0 137 48 240.5t133 159t192 55.5q203 0 306 -157t103 -530q0 -285 -45 -454.5t-131 -241.5t-215 -72q-178 0 -266 125t-88 332h194q0 -139 42 -214t126 -75q106 0 144 124t43 380q-43 -59 -105.5 -92t-134.5 -33q-168 0 -257 126t-89 327zM272 975 q0 -127 47.5 -208t139.5 -81t140 81t48 208t-48 207t-140 80t-139.5 -80t-47.5 -207z" />
<glyph unicode=":" horiz-adv-x="495" d="M125 0v240h229v-240h-229zM125 838v239h229v-239h-229z" />
<glyph unicode=";" horiz-adv-x="495" d="M125 0v240h229v-220l-110 -294h-119l92 274h-92zM125 838v239h229v-239h-229z" />
<glyph unicode="&#x3c;" horiz-adv-x="980" d="M84 408v231l815 412v-203l-637 -324l637 -321v-203z" />
<glyph unicode="=" horiz-adv-x="980" d="M82 211v182h815v-182h-815zM82 645v184h815v-184h-815z" />
<glyph unicode="&#x3e;" horiz-adv-x="980" d="M84 0v203l637 321l-637 324v203l815 -412v-231z" />
<glyph unicode="?" horiz-adv-x="962" d="M90 1012q0 182 106.5 300t303.5 118q106 0 189 -46.5t130 -129.5t47 -189q0 -100 -21.5 -170t-52 -114t-79.5 -99q-57 -61 -84 -107.5t-27 -119.5v-76h-203v106q0 88 32 147.5t95 131.5q63 74 95 132t32 146q0 70 -35.5 140.5t-134.5 70.5q-106 0 -144 -79.5t-38 -178.5 q0 -23 1 -37t1 -18h-207q-2 8 -4 28.5t-2 43.5zM387 0v240h229v-240h-229z" />
<glyph unicode="@" horiz-adv-x="1683" d="M80 537q0 313 104.5 512.5t280.5 290t399 90.5q338 0 539 -189.5t201 -583.5q0 -217 -60.5 -354t-150.5 -197.5t-183 -60.5q-86 0 -130 33t-62 94h-8q-86 -129 -242 -129q-96 0 -175 60.5t-79 213.5q0 188 128 261t366 73v119q0 72 -30 110t-110 38q-74 0 -106.5 -40 t-32.5 -100v-24h-172q-2 12 -2 41q0 129 88 200.5t231 71.5q154 0 231 -71.5t77 -207.5v-514q0 -78 67 -77q92 0 159 108.5t67 353.5q0 330 -164 490t-449 160q-309 0 -482 -195.5t-173 -578.5q0 -365 145.5 -546.5t446.5 -181.5q70 0 167 19.5t146 46.5v-131 q-57 -23 -152.5 -39t-160.5 -16q-344 0 -531.5 208.5t-187.5 641.5zM696 332q0 -72 31 -104.5t94 -32.5q78 0 132.5 63.5t54.5 169.5v78q-152 0 -232 -37t-80 -137z" />
<glyph unicode="A" horiz-adv-x="1148" d="M-2 0l448 1405h256l449 -1405h-219l-92 301h-545l-92 -301h-205zM350 487h432l-176 576q-10 35 -21.5 91t-13.5 75h-8q-2 -18 -13 -75.5t-22 -90.5z" />
<glyph unicode="B" horiz-adv-x="1148" d="M129 0v1405h555q106 0 190 -43t132.5 -122t48.5 -181q0 -117 -60.5 -203t-154.5 -119v-8q109 -33 178 -128t69 -226q0 -115 -54 -200t-146 -130t-203 -45h-555zM336 186h319q96 0 156.5 56.5t60.5 158.5q0 94 -62 160t-167 66h-307v-441zM336 811h291q96 0 154.5 60.5 t58.5 146.5q0 98 -53.5 149.5t-147.5 51.5h-303v-408z" />
<glyph unicode="C" horiz-adv-x="1212" d="M80 702q0 365 141 546.5t414 181.5q225 0 362.5 -136.5t137.5 -400.5h-211q0 172 -78 262t-211 90q-340 0 -340 -491v-103q0 -491 343 -491h1q135 0 214 89t79 261h203q0 -264 -136.5 -399.5t-363.5 -135.5q-273 0 -414 181.5t-141 545.5z" />
<glyph unicode="D" horiz-adv-x="1212" d="M137 0v1405h443q258 0 400 -174t142 -508q0 -354 -142 -538.5t-400 -184.5h-443zM342 186h219q164 0 255 123t91 363v102q0 219 -91 332t-255 113h-219v-1033z" />
<glyph unicode="E" horiz-adv-x="1120" d="M137 0v1405h875v-186h-670v-408h580v-184h-580v-441h682v-186h-887z" />
<glyph unicode="F" horiz-adv-x="1026" d="M137 0v1405h815v-186h-610v-422h535v-187h-535v-610h-205z" />
<glyph unicode="G" horiz-adv-x="1306" d="M90 702q0 360 149.5 544t424.5 184q147 0 265 -57.5t185.5 -172.5t67.5 -278h-211q0 160 -84 241.5t-225 81.5q-172 0 -264.5 -125t-92.5 -366v-103q0 -244 88 -367.5t262 -123.5q158 0 237 96t79 285v22h-348v178h559v-741h-133l-41 156q-127 -180 -367 -181 q-268 0 -409.5 181.5t-141.5 545.5z" />
<glyph unicode="H" horiz-adv-x="1212" d="M137 0v1405h205v-594h528v594h205v-1405h-205v627h-528v-627h-205z" />
<glyph unicode="I" horiz-adv-x="466" d="M131 0v1405h205v-1405h-205z" />
<glyph unicode="J" horiz-adv-x="870" d="M25 334v98h204v-98q0 -84 39 -129t115 -45q72 0 110.5 45t38.5 129v1071h207v-1071q0 -174 -92 -266.5t-264 -92.5t-265 92.5t-93 266.5z" />
<glyph unicode="K" horiz-adv-x="1148" d="M137 0v1405h207v-735l543 735h229l-420 -569l434 -836h-233l-330 668l-223 -256v-412h-207z" />
<glyph unicode="L" horiz-adv-x="962" d="M137 0v1405h205v-1215h582v-190h-787z" />
<glyph unicode="M" horiz-adv-x="1398" d="M121 0v1405h305l223 -875q16 -63 31.5 -172.5t19.5 -144.5h9q4 37 17 147.5t28 169.5l225 875h299v-1405h-201v981q0 33 6.5 113t8.5 106h-9l-14 -61q-23 -115 -35 -158l-254 -981h-182l-254 983q-20 82 -45 217h-8q2 -29 6 -97.5t6 -121.5v-981h-182z" />
<glyph unicode="N" horiz-adv-x="1212" d="M137 0v1405h180l494 -848q18 -29 44 -89t34 -81l6 2l-4 164v852h184v-1405h-176l-498 856q-18 33 -44.5 92.5t-34.5 79.5l-9 -4q2 -18 5.5 -67.5t3.5 -96.5v-860h-185z" />
<glyph unicode="O" horiz-adv-x="1306" d="M90 702q0 360 147.5 544t415.5 184t416 -183.5t148 -544.5q0 -360 -147.5 -543.5t-416.5 -183.5q-268 0 -415.5 183.5t-147.5 543.5zM305 651q0 -240 91 -365.5t257 -125.5t257 126t91 365v103q0 240 -91 365.5t-257 125.5t-257 -126t-91 -365v-103z" />
<glyph unicode="P" horiz-adv-x="1120" d="M137 0v1405h502q205 0 315.5 -112.5t110.5 -301.5q0 -190 -115.5 -306t-310.5 -116h-297v-569h-205zM342 754h285q102 0 162.5 64.5t60.5 172.5q0 106 -58.5 167t-164.5 61h-285v-465z" />
<glyph unicode="Q" horiz-adv-x="1306" d="M90 702q0 360 147.5 544t415.5 184t416 -183.5t148 -544.5q0 -270 -84 -441t-242 -241l285 -274h-267l-231 229h-25q-268 0 -415.5 183.5t-147.5 543.5zM305 651q0 -240 91 -365.5t257 -125.5t257 126t91 365v103q0 240 -91 365.5t-257 125.5t-257 -126t-91 -365v-103z " />
<glyph unicode="R" horiz-adv-x="1212" d="M137 0v1405h572q205 0 314.5 -107.5t109.5 -285.5q0 -129 -66 -225.5t-180 -137.5l278 -649h-227l-252 610h-344v-610h-205zM342 795h352q102 0 160.5 59t58.5 158q0 96 -55 151.5t-162 55.5h-354v-424z" />
<glyph unicode="S" horiz-adv-x="1120" d="M78 401l2 43h213l-2 -41q0 -117 71.5 -180t190.5 -63q131 0 199.5 56t68.5 157q0 74 -40 121t-100 74.5t-165 60.5q-131 43 -213 84t-139.5 121.5t-57.5 212.5q0 186 128 284.5t325 98.5t322 -100.5t125 -301.5v-24h-213v26q0 100 -64.5 157.5t-167.5 57.5 q-109 0 -174 -47t-65 -135q0 -66 38.5 -110t98 -70.5t159.5 -57.5q133 -43 216.5 -84t142.5 -120.5t59 -208.5q0 -227 -130 -332t-353 -105q-209 0 -342 105.5t-133 320.5z" />
<glyph unicode="T" horiz-adv-x="1026" d="M37 1219v186h950v-186h-371v-1219h-206v1219h-373z" />
<glyph unicode="U" horiz-adv-x="1212" d="M137 451v954h207v-959q0 -139 68.5 -212.5t193.5 -73.5t194.5 74.5t69.5 211.5v959h205v-954q0 -231 -123 -353.5t-346 -122.5t-346 122t-123 354z" />
<glyph unicode="V" horiz-adv-x="1120" d="M10 1405h223l330 -1143h8l338 1143h201l-428 -1405h-244z" />
<glyph unicode="W" horiz-adv-x="1585" d="M14 1405h213l199 -938q10 -45 22.5 -125t16.5 -106h8q2 23 11.5 95t21.5 136l164 938h264l172 -938q10 -53 21.5 -130t13.5 -101h8q2 25 13.5 101.5t23.5 129.5l200 938h185l-320 -1405h-243l-179 934q-10 55 -21 142t-13 114h-9q-4 -29 -13 -104.5t-21 -151.5l-177 -934 h-241z" />
<glyph unicode="X" horiz-adv-x="1120" d="M6 0l432 731l-393 674h238l280 -487h4l287 487h217l-393 -662l436 -743h-237l-322 559h-4l-328 -559h-217z" />
<glyph unicode="Y" horiz-adv-x="1120" d="M10 1405h223l336 -641h9l329 641h203l-446 -840v-565h-205v565z" />
<glyph unicode="Z" horiz-adv-x="1026" d="M39 0v84l639 1135h-596v186h885v-86l-639 -1133h653v-186h-942z" />
<glyph unicode="[" horiz-adv-x="495" d="M100 -330v1835h353v-151h-170v-1532h170v-152h-353z" />
<glyph unicode="\" horiz-adv-x="466" d="M2 1505h154l311 -1605h-156z" />
<glyph unicode="]" horiz-adv-x="495" d="M45 -178h170v1532h-170v151h350v-1835h-350v152z" />
<glyph unicode="^" horiz-adv-x="849" d="M27 602l290 803h220l292 -803h-196l-207 617l-203 -617h-196z" />
<glyph unicode="_" d="M0 -139h932v-121h-932v121z" />
<glyph unicode="`" horiz-adv-x="559" d="M51 1475l2 6h205l176 -271h-162z" />
<glyph unicode="a" d="M57 279q0 207 140.5 286.5t400.5 79.5v129q0 78 -33 120t-119 42q-82 0 -117.5 -44t-35.5 -108v-26h-191q-2 12 -2 45q0 141 96.5 220t256.5 79q168 0 253 -80t85 -227v-580q0 -35 16 -53.5t41 -18.5h61v-135q-43 -26 -116 -26h-5q-68 0 -114.5 35.5t-63.5 99.5h-10 q-92 -141 -264 -142q-107 0 -193 67t-86 237zM256 293q0 -80 34 -115t105 -35q84 0 143.5 70t59.5 186v86q-164 0 -253 -41t-89 -151z" />
<glyph unicode="b" horiz-adv-x="962" d="M119 0v1481h192v-508h11q29 61 91 95t142 34q145 0 235.5 -140.5t90.5 -420.5q0 -287 -89.5 -426.5t-248.5 -139.5q-76 0 -137.5 39t-100.5 113h-10l-25 -127h-151zM311 500q0 -352 185 -353q94 0 139 85t45 268v78q0 182 -45 267t-139 85q-184 0 -185 -359v-71z" />
<glyph unicode="c" horiz-adv-x="870" d="M78 539q0 289 92 426t285 137q346 0 346 -426h-199q0 135 -32.5 196.5t-114.5 61.5q-90 0 -133 -89t-43 -267v-78q0 -180 43 -268.5t137 -88.5q80 0 115.5 64.5t35.5 193.5h191q0 -195 -86 -310.5t-256 -115.5q-199 0 -290 136.5t-91 427.5z" />
<glyph unicode="d" horiz-adv-x="962" d="M82 541q0 281 90 421t236 140q80 0 142 -34t91 -95h10v508h193v-1481h-152l-24 127h-11q-39 -74 -100 -113t-137 -39q-160 0 -249 139.5t-89 426.5zM285 500q0 -184 44 -268.5t138 -84.5t139 88.5t45 264.5v71q0 358 -184 359q-94 0 -138 -84t-44 -268v-78z" />
<glyph unicode="e" d="M80 539q0 289 101.5 426t305.5 137q184 0 274.5 -126t90.5 -398v-93h-571q2 -176 52 -260t161 -84q76 0 122 61.5t46 168.5h190q0 -184 -99.5 -290t-260.5 -106q-207 0 -309.5 135.5t-102.5 428.5zM283 645h368q0 141 -41 216t-123 75q-98 0 -146 -71.5t-58 -219.5z" />
<glyph unicode="f" horiz-adv-x="495" d="M18 909v168h99v160q0 111 53 185.5t174 74.5q37 0 79 -7t73 -17v-138h-93q-94 0 -94 -96v-162h187v-168h-187v-909h-192v909h-99z" />
<glyph unicode="g" horiz-adv-x="962" d="M29 -119q0 78 37.5 138.5t101.5 86.5q-41 27 -64.5 70t-23.5 92q0 66 42 114t111 73q-61 49 -94 120.5t-33 161.5q0 170 97.5 267.5t269.5 97.5q94 0 164 -37q111 68 123 188h166q0 -102 -47.5 -171.5t-130.5 -92.5q92 -98 92 -252q0 -166 -96.5 -264t-264.5 -98h-110 q-39 0 -64.5 -25.5t-25.5 -62.5q0 -35 25.5 -59.5t62.5 -24.5h327q111 0 180.5 -75t69.5 -187q0 -137 -88 -225.5t-238 -88.5h-331q-119 0 -188.5 72t-69.5 182zM221 -96q0 -51 32 -85t85 -34h291q51 0 86 34t35 85t-31 83.5t-86 32.5h-295q-55 0 -86 -32.5t-31 -83.5z M299 737q0 -100 44 -155.5t128 -55.5t129 56.5t45 154.5q0 102 -44 156.5t-130 54.5q-84 0 -128 -55t-44 -156z" />
<glyph unicode="h" horiz-adv-x="962" d="M119 0v1481h192v-516h13q84 137 247 137q272 0 273 -332v-770h-193v739q0 104 -38 147.5t-111 43.5q-80 0 -135.5 -75t-55.5 -196v-659h-192z" />
<glyph unicode="i" horiz-adv-x="403" d="M104 0v1077h193v-1077h-193zM104 1274v207h193v-207h-193z" />
<glyph unicode="j" horiz-adv-x="403" d="M-82 -211h90q96 0 96 98v1190h193v-1190q0 -113 -51 -186.5t-172 -73.5q-78 0 -156 25v137zM104 1274v207h193v-207h-193z" />
<glyph unicode="k" horiz-adv-x="870" d="M119 0v1481h192v-881l334 477h211l-319 -440l335 -637h-217l-237 477l-107 -121v-356h-192z" />
<glyph unicode="l" horiz-adv-x="403" d="M104 0v1481h193v-1481h-193z" />
<glyph unicode="m" horiz-adv-x="1429" d="M119 0v1077h151l25 -127h12q41 74 104.5 113t143.5 39q174 0 231 -156q41 72 113 114t154 42q258 0 258 -332v-770h-193v739q0 104 -33.5 147.5t-99.5 43.5q-74 0 -124 -73t-50 -193v-664h-190v739q0 104 -35 147.5t-101 43.5q-74 0 -124 -74t-50 -197v-659h-192z" />
<glyph unicode="n" horiz-adv-x="962" d="M119 0v1077h151l25 -127h12q43 74 110.5 113t153.5 39q272 0 273 -332v-770h-193v739q0 104 -38 147.5t-111 43.5q-80 0 -135.5 -75t-55.5 -196v-659h-192z" />
<glyph unicode="o" horiz-adv-x="962" d="M82 539q0 287 100.5 425t298.5 138q201 0 300.5 -138.5t99.5 -424.5q0 -287 -99.5 -425.5t-300.5 -138.5q-198 0 -298.5 138.5t-100.5 425.5zM285 500q0 -178 48 -267.5t148 -89.5q199 1 199 357v78q0 356 -199 356q-100 0 -148 -89t-48 -267v-78z" />
<glyph unicode="p" horiz-adv-x="962" d="M119 -354v1431h151l25 -127h10q39 74 100.5 113t137.5 39q160 0 249 -139.5t89 -425.5q0 -281 -90.5 -421.5t-235.5 -140.5q-80 0 -142.5 34t-90.5 91h-11v-454h-192zM311 502q0 -354 185 -355q94 0 139 85t45 268v78q0 182 -45 267t-139 85q-184 0 -185 -352v-76z" />
<glyph unicode="q" horiz-adv-x="962" d="M82 537q0 287 89 426t249 139q76 0 137 -39t100 -113h11l24 127h152v-1431h-193v454h-10q-29 -57 -91.5 -91t-141.5 -34q-145 0 -235.5 140.5t-90.5 421.5zM285 500q0 -184 44 -268.5t138 -84.5q184 1 184 355v76q0 176 -45 264t-139 88t-138 -84t-44 -268v-78z" />
<glyph unicode="r" horiz-adv-x="589" d="M119 0v1077h151l25 -147h12q57 172 185 172q33 0 56 -7.5t30 -9.5v-194h-66q-88 0 -144.5 -59.5t-56.5 -192.5v-639h-192z" />
<glyph unicode="s" horiz-adv-x="870" d="M68 299q0 23 1 30t1 9h198v-19q2 -92 48 -136t120 -44q66 0 111 38t45 110q0 53 -27.5 87t-68.5 53t-113 44q-94 31 -152.5 60.5t-99.5 92t-41 164.5q0 147 96.5 230.5t253.5 83.5q150 0 239 -83t89 -212l-2 -41h-199v14q0 70 -33.5 114t-105.5 44q-74 0 -107.5 -41 t-33.5 -94q0 -66 48 -97.5t148 -62.5q98 -31 158.5 -61.5t105 -95t44.5 -173.5q0 -172 -98.5 -255t-264.5 -83q-176 0 -268 92.5t-92 231.5z" />
<glyph unicode="t" horiz-adv-x="495" d="M25 909v168h98l37 301h155v-301h150v-168h-150v-671q0 -45 23.5 -70t69.5 -25h57v-137q-23 -12 -60.5 -20.5t-70.5 -8.5q-113 0 -162 76t-49 187v669h-98z" />
<glyph unicode="u" horiz-adv-x="962" d="M119 307v770h192v-739q0 -104 38 -147.5t112 -43.5q80 0 135 75t55 194v661h193v-1077h-152l-24 127h-13q-43 -74 -110.5 -113t-151.5 -39q-274 0 -274 332z" />
<glyph unicode="v" horiz-adv-x="870" d="M16 1077h207l146 -520q10 -37 19 -77t20 -77q29 -121 32 -135h9l22 99q33 141 47 194l141 516h195l-317 -1077h-203z" />
<glyph unicode="w" horiz-adv-x="1243" d="M2 1077h203l125 -555q16 -66 28.5 -159t14.5 -121h8q2 27 12 114.5t25 165.5l104 555h211l105 -555q12 -68 23 -160t13 -120h9q4 27 17 115.5t28 164.5l123 555h188l-266 -1077h-205l-111 584q-14 68 -22 147.5t-10 104.5h-11q-2 -23 -10 -103t-20 -149l-109 -584h-207z " />
<glyph unicode="x" horiz-adv-x="870" d="M12 0l312 549l-295 528h227l182 -350h4l189 350h213l-299 -516l313 -561h-227l-199 381h-6l-205 -381h-209z" />
<glyph unicode="y" horiz-adv-x="870" d="M16 1077h209l176 -600q16 -55 35 -139q18 -74 21 -80h8q4 16 12 61q25 117 37 160l145 598h195l-281 -1022q-55 -201 -139 -314.5t-219 -113.5q-84 1 -133 17v139h76q150 0 198 217z" />
<glyph unicode="z" horiz-adv-x="839" d="M47 0v88l457 821h-426v168h690v-86l-459 -823h482v-168h-744z" />
<glyph unicode="{" horiz-adv-x="589" d="M43 502v176q63 0 110.5 29.5t47.5 93.5v401q0 176 93 239.5t255 63.5v-129q-68 0 -115 -30.5t-47 -108.5q0 -143 -10 -324l-4 -92q-4 -111 -48 -166t-145 -55v-20q100 0 144.5 -55.5t48.5 -166.5l4 -92q10 -180 10 -323q0 -78 47 -109t115 -31v-129q-162 0 -255 63.5 t-93 239.5v402q0 63 -47.5 93t-110.5 30z" />
<glyph unicode="|" horiz-adv-x="446" d="M139 -354v1835h168v-1835h-168z" />
<glyph unicode="}" horiz-adv-x="589" d="M41 -197q68 0 115 31t47 109q0 84 8 256l6 159q4 111 48 166.5t147 55.5v20q-102 0 -146.5 55.5t-48.5 165.5l-6 160q-8 172 -8 256q0 78 -47 108.5t-115 30.5v129q162 0 255 -63.5t93 -239.5v-401q0 -63 47 -93t111 -30v-176q-63 0 -110.5 -30t-47.5 -93v-402 q0 -176 -93 -239.5t-255 -63.5v129z" />
<glyph unicode="~" horiz-adv-x="980" d="M66 424v205q0 6 31.5 45t86 71.5t127.5 32.5q43 0 83 -15t93 -46q55 -31 96.5 -47.5t86.5 -16.5q63 0 117.5 33t91 73t36.5 44v-205q0 -6 -31.5 -45t-86 -71.5t-127.5 -32.5q-43 0 -83 15t-93 46q-55 31 -96.5 47t-86.5 16q-63 0 -117.5 -32.5t-91 -72.5t-36.5 -44z" />
<glyph unicode="&#xa1;" horiz-adv-x="559" d="M178 -328l60 1039h139l59 -1039h-258zM195 838v239h229v-239h-229z" />
<glyph unicode="&#xa2;" d="M94 702q0 268 82 405.5t252 154.5v219h104v-217q309 -27 310 -424h-191q0 117 -27.5 178t-91.5 76v-785q68 14 97.5 78t29.5 178h183q0 -182 -78 -295.5t-232 -128.5v-241h-104v241q-172 20 -253 156.5t-81 404.5zM287 664q0 -154 33.5 -241t107.5 -110v779 q-72 -23 -106.5 -110t-34.5 -241v-77z" />
<glyph unicode="&#xa3;" d="M33 612v166h141v244q0 201 89 304.5t253 103.5q342 0 342 -398v-26h-190v38q0 109 -39 163.5t-113 54.5q-147 0 -147 -201v-283h264v-166h-266l-21 -432h508v-180h-799v180h119v432h-141z" />
<glyph unicode="&#xa4;" d="M-4 336l100 100q-68 125 -67 264q0 143 67 263l-100 102l106 106l86 -88q121 115 279 115q78 0 148.5 -29.5t127.5 -85.5l88 88l107 -106l-100 -100q68 -129 67 -265q0 -141 -69 -264l102 -100l-107 -107l-88 86q-59 -53 -129.5 -81.5t-146.5 -28.5q-152 -1 -277 110 l-88 -86zM180 700q0 -92 38 -170.5t104.5 -125t144.5 -46.5t143.5 46.5t103.5 125t38 170.5q0 94 -38 173t-103.5 125t-143.5 46t-144.5 -46t-104.5 -124.5t-38 -173.5z" />
<glyph unicode="&#xa5;" d="M6 1405h217l252 -582h8l246 582h197l-293 -639h248v-143h-314v-144h314v-143h-314v-336h-200v336h-314v143h314v144h-314v143h248z" />
<glyph unicode="&#xa6;" horiz-adv-x="446" d="M139 -354v772h168v-772h-168zM139 709v772h168v-772h-168z" />
<glyph unicode="&#xa7;" d="M119 561q0 88 39 161t102 120q-57 49 -88 115.5t-31 158.5q0 147 95.5 230.5t257.5 83.5q150 0 238.5 -83t88.5 -212l-2 -41h-198q0 172 -142 172q-70 0 -104.5 -41t-34.5 -95q0 -63 28.5 -108t71.5 -74.5t119 -73.5q92 -49 148.5 -91t96.5 -112.5t40 -174.5 q0 -90 -39 -162t-103 -121q57 -51 88 -115.5t31 -156.5q0 -147 -95 -230.5t-257 -83.5q-150 0 -239 83t-89 212l2 41h199q0 -172 141 -172q70 0 105 41t35 94q0 63 -29 108.5t-72 75t-119 72.5q-92 49 -148 91t-96 113t-40 175zM307 614q0 -74 31 -125t76 -85.5t123 -79.5 q37 -20 55 -33q63 59 63 151q0 74 -31.5 126.5t-77.5 86t-126 78.5l-51 31q-29 -25 -45.5 -63.5t-16.5 -86.5z" />
<glyph unicode="&#xa8;" horiz-adv-x="559" d="M25 1278v203h186v-203h-186zM348 1278v203h187v-203h-187z" />
<glyph unicode="&#xa9;" horiz-adv-x="1236" d="M39 702q0 219 69.5 384t200.5 254.5t309 89.5t309.5 -89.5t201 -254t69.5 -384.5q0 -219 -69.5 -383.5t-200.5 -254t-310 -89.5q-178 0 -309 89.5t-200.5 254t-69.5 383.5zM141 702q0 -190 57.5 -330.5t165 -217t254.5 -76.5q148 0 255.5 76.5t165 217t57.5 330.5 t-57.5 331t-165 217.5t-255.5 76.5q-147 0 -254.5 -76.5t-165 -217t-57.5 -331.5zM295 709q0 430 328 430q133 0 214 -80t81 -236h-140q0 96 -42 145.5t-113 49.5q-186 0 -187 -277v-61q0 -276 189 -277q74 0 116.5 48.5t42.5 144.5h134q0 -156 -81 -235.5t-214 -79.5 q-162 0 -245 106.5t-83 321.5z" />
<glyph unicode="&#xaa;" horiz-adv-x="620" d="M37 948q0 141 94 195.5t268 54.5v84q0 51 -20.5 77.5t-75.5 26.5q-51 0 -74.5 -28.5t-23.5 -69.5v-20h-137v32q0 96 65.5 150.5t173.5 54.5q113 0 171.5 -54t58.5 -155v-387q0 -23 11 -35t25 -12h43v-96q-33 -20 -84 -21q-45 0 -75.5 24t-42.5 67h-6q-63 -94 -181 -95 q-73 0 -131.5 45t-58.5 162zM180 956q0 -49 21.5 -71.5t66.5 -22.5q54 0 92.5 46t38.5 122v55q-106 0 -162.5 -27.5t-56.5 -101.5z" />
<glyph unicode="&#xab;" d="M88 668l285 409h159l-229 -409l229 -410h-159zM418 668l287 409h157l-227 -409l227 -410h-157z" />
<glyph unicode="&#xac;" horiz-adv-x="980" d="M74 731v203h823v-537h-184v334h-639z" />
<glyph unicode="&#xad;" horiz-adv-x="559" d="M25 446v213h507v-213h-507z" />
<glyph unicode="&#xae;" horiz-adv-x="1236" d="M39 702q0 219 69.5 384t200.5 254.5t309 89.5t309.5 -89.5t201 -254t69.5 -384.5q0 -219 -69.5 -383.5t-200.5 -254t-310 -89.5q-178 0 -309 89.5t-200.5 254t-69.5 383.5zM141 702q0 -190 57.5 -330.5t165 -217t254.5 -76.5q148 0 255.5 76.5t165 217t57.5 330.5 t-57.5 331t-165 217.5t-255.5 76.5q-147 0 -254.5 -76.5t-165 -217t-57.5 -331.5zM356 297v827h328q94 0 155.5 -58t61.5 -151q0 -72 -36 -123t-93 -69v-8q43 -16 83 -66.5t40 -152.5q0 -78 13.5 -111t43.5 -45v-37q-10 -4 -30.5 -8t-34.5 -4q-56 0 -92.5 37t-36.5 121 q0 111 -38 155.5t-91 44.5h-137v-352h-136zM492 774h143q57 0 92 33t35 84t-33 79.5t-88 28.5h-149v-225z" />
<glyph unicode="&#xaf;" horiz-adv-x="559" d="M23 1227v157h516v-157h-516z" />
<glyph unicode="&#xb0;" horiz-adv-x="819" d="M125 1149q0 76 38 140.5t102.5 102.5t140.5 38t140 -38t102 -102.5t38 -140.5t-38 -140.5t-102.5 -102.5t-139.5 -38q-76 0 -140.5 38t-102.5 102.5t-38 140.5zM244 1149q0 -68 47 -116t115 -48q67 0 113 48t46 116t-46 114t-113 46q-68 0 -115 -46t-47 -114z" />
<glyph unicode="&#xb1;" horiz-adv-x="1124" d="M154 0v182h815v-182h-815zM154 639v186h315v369h182v-369h318v-186h-318v-369h-182v369h-315z" />
<glyph unicode="&#xb2;" horiz-adv-x="559" d="M43 657v35q0 86 43 156t123 156t120 147t40 131q0 39 -19.5 66.5t-64.5 27.5t-66.5 -34.5t-21.5 -92.5v-61h-142q0 6 -2 22.5t-2 36.5q0 129 66.5 193.5t169.5 64.5q100 0 163.5 -55t63.5 -168q0 -94 -50 -173t-145 -183l-28 -33q-57 -61 -76 -98h301v-138h-473z" />
<glyph unicode="&#xb3;" horiz-adv-x="559" d="M41 901v25h143v-29q0 -127 97 -127q47 0 73.5 30.5t26.5 94.5q0 125 -105 125h-65v123h68q39 0 64.5 31.5t25.5 89.5q0 57 -23.5 86.5t-60.5 29.5q-41 0 -64.5 -30.5t-23.5 -89.5v-29h-142v39q0 106 63.5 170.5t164.5 64.5q104 0 165.5 -61.5t61.5 -173.5 q0 -66 -25.5 -109t-74.5 -74q51 -27 81.5 -76.5t30.5 -121.5q0 -113 -64.5 -178.5t-170.5 -65.5q-117 0 -181.5 68.5t-64.5 187.5z" />
<glyph unicode="&#xb4;" horiz-adv-x="559" d="M127 1210l176 271h203l2 -6l-221 -265h-160z" />
<glyph unicode="&#xb5;" horiz-adv-x="962" d="M119 -354v1431h192v-755q0 -94 39 -134.5t111 -40.5q80 0 135 75t55 194v661h193v-1077h-152l-24 127h-13q-41 -74 -105.5 -113t-143.5 -39q-53 0 -95 15v-344h-192z" />
<glyph unicode="&#xb6;" horiz-adv-x="911" d="M37 956q0 123 52 225.5t142.5 163t198.5 60.5h447v-135h-99v-1624h-143v1624h-109v-1624h-143v866q-98 12 -177 74.5t-124 159t-45 210.5z" />
<glyph unicode="&#xb7;" horiz-adv-x="466" d="M123 584v239h219v-239h-219z" />
<glyph unicode="&#xb8;" horiz-adv-x="559" d="M74 -256h151q37 0 55.5 11.5t18.5 37.5q0 25 -15.5 37t-54.5 12h-67l26 181h123l-14 -95q74 -6 120 -37.5t46 -97.5q0 -92 -66.5 -129t-150.5 -37q-94 1 -172 17v100z" />
<glyph unicode="&#xb9;" horiz-adv-x="559" d="M76 1296v97q49 6 117.5 31.5t113.5 58.5h68v-699h145v-127h-442v127h158v512h-160z" />
<glyph unicode="&#xba;" horiz-adv-x="612" d="M37 1122q0 195 67.5 289t202.5 94t203 -94t68 -289t-68 -289t-203 -94t-202.5 94.5t-67.5 288.5zM180 1096q0 -117 31 -175.5t96 -58.5q129 1 129 234v53q0 233 -129 233q-66 0 -96.5 -58t-30.5 -175v-53z" />
<glyph unicode="&#xbb;" d="M72 258l227 410l-227 409h157l287 -409l-287 -410h-157zM401 258l230 410l-230 409h160l285 -409l-285 -410h-160z" />
<glyph unicode="&#xbc;" horiz-adv-x="1400" d="M63 1219v96q49 6 117 32.5t117 57.5h65v-698h146v-125h-442v125h159v512h-162zM246 -25l837 1455h131l-837 -1455h-131zM803 193v112q61 113 116.5 255t94.5 286h137q-31 -141 -95.5 -295t-113.5 -234h164v152q20 47 46 117.5t36 122.5h55v-392h84v-124h-84v-193h-137 v193h-303z" />
<glyph unicode="&#xbd;" horiz-adv-x="1400" d="M63 1219v96q49 6 117 32.5t117 57.5h65v-698h146v-125h-442v125h159v512h-162zM227 -25l838 1455h131l-838 -1455h-131zM854 0v35q0 86 42 154.5t122 154.5q82 90 121 149.5t39 131.5q0 39 -19.5 66.5t-64.5 27.5q-43 0 -65.5 -37t-22.5 -92v-62h-140q0 6 -2 22.5 t-2 37.5q0 131 66.5 194.5t169.5 63.5q100 0 163.5 -54.5t63.5 -166.5q0 -94 -50 -173t-145 -184l-28 -30q-23 -25 -43.5 -51.5t-32.5 -51.5h301v-135h-473z" />
<glyph unicode="&#xbe;" horiz-adv-x="1400" d="M57 825v25h142v-29q0 -127 96 -127q47 0 74.5 31t27.5 94q0 125 -106 125h-66v123h68q39 0 64.5 30.5t25.5 90.5q0 59 -23.5 88t-60.5 29q-39 0 -62.5 -31t-23.5 -90v-29h-141v39q0 106 62.5 171t162.5 65q104 0 166.5 -61.5t62.5 -174.5q0 -66 -25.5 -109t-74.5 -73 q51 -27 82 -78t31 -121q0 -113 -65.5 -178.5t-172.5 -65.5q-117 0 -180.5 69t-63.5 187zM231 -25l840 1455h129l-838 -1455h-131zM801 193v112q61 113 116.5 255t94.5 286h137q-31 -141 -95.5 -295t-113.5 -234h164v152q20 47 46 117.5t36 122.5h55v-392h84v-124h-84v-193 h-137v193h-303z" />
<glyph unicode="&#xbf;" horiz-adv-x="1026" d="M129 6q0 96 21.5 166t51 115t79.5 100q57 66 83.5 114t26.5 122v75h205v-106q0 -88 -32 -147.5t-95 -133.5t-95 -133t-32 -149q0 -68 37 -136.5t139 -68.5q104 0 140 79t36 179q0 23 -1 37t-1 18h207q2 -8 4 -28.5t2 -42.5q0 -186 -103.5 -302t-297.5 -116 q-109 0 -195 45t-133 127t-47 186zM379 838v239h229v-239h-229z" />
<glyph unicode="&#xc0;" horiz-adv-x="1148" d="M-2 0l448 1405h256l449 -1405h-219l-92 301h-545l-92 -301h-205zM322 1802l2 6h202l176 -270h-159zM350 487h432l-176 576q-10 35 -21.5 91t-13.5 75h-8q-2 -18 -13 -75.5t-22 -90.5z" />
<glyph unicode="&#xc1;" horiz-adv-x="1148" d="M-2 0l448 1405h256l449 -1405h-219l-92 301h-545l-92 -301h-205zM350 487h432l-176 576q-10 35 -21.5 91t-13.5 75h-8q-2 -18 -13 -75.5t-22 -90.5zM446 1538l177 270h204l2 -6l-221 -264h-162z" />
<glyph unicode="&#xc2;" horiz-adv-x="1148" d="M-2 0l448 1405h256l449 -1405h-219l-92 301h-545l-92 -301h-205zM313 1530l176 276h173l174 -276h-170l-91 156l-92 -156h-170zM350 487h432l-176 576q-10 35 -21.5 91t-13.5 75h-8q-2 -18 -13 -75.5t-22 -90.5z" />
<glyph unicode="&#xc3;" horiz-adv-x="1148" d="M-2 0l448 1405h256l449 -1405h-219l-92 301h-545l-92 -301h-205zM260 1583q0 86 47 155.5t135 69.5q51 0 129 -34q6 -2 44 -16.5t75 -14.5q31 0 49.5 14.5t24.5 50.5h123q0 -88 -46 -156.5t-136 -68.5q-31 0 -56.5 8t-73.5 27q-39 16 -65.5 24.5t-52.5 8.5q-63 0 -70 -68 h-127zM350 487h432l-176 576q-10 35 -21.5 91t-13.5 75h-8q-2 -18 -13 -75.5t-22 -90.5z" />
<glyph unicode="&#xc4;" horiz-adv-x="1148" d="M-2 0l448 1405h256l449 -1405h-219l-92 301h-545l-92 -301h-205zM319 1606v202h187v-202h-187zM350 487h432l-176 576q-10 35 -21.5 91t-13.5 75h-8q-2 -18 -13 -75.5t-22 -90.5zM643 1606v202h186v-202h-186z" />
<glyph unicode="&#xc5;" horiz-adv-x="1148" d="M-2 0l448 1405h256l449 -1405h-219l-92 301h-545l-92 -301h-205zM350 487h432l-176 576q-10 35 -21.5 91t-13.5 75h-8q-2 -18 -13 -75.5t-22 -90.5zM377 1675q0 82 57.5 139.5t138.5 57.5q84 0 140.5 -57.5t56.5 -139.5t-57.5 -139t-139.5 -57q-79 0 -137.5 57t-58.5 139 zM473 1675q0 -41 29.5 -70.5t70.5 -29.5t72 29.5t31 70.5q0 43 -31 73t-72 30t-70.5 -30t-29.5 -73z" />
<glyph unicode="&#xc6;" horiz-adv-x="1679" d="M-6 0l561 1405h1032v-186h-729l94 -408h545v-184h-502l103 -441h501v-186h-675l-70 301h-545l-114 -301h-201zM379 487h434l-133 596q-8 31 -14.5 71t-8.5 46h-8l-41 -117z" />
<glyph unicode="&#xc7;" horiz-adv-x="1212" d="M80 702q0 365 141 546.5t414 181.5q225 0 362.5 -136.5t137.5 -400.5h-211q0 172 -78 262t-211 90q-340 0 -340 -491v-103q0 -492 344 -491q135 0 214 89t79 261h203q0 -260 -132.5 -395t-351.5 -140l-6 -47q74 -6 119 -37.5t45 -97.5q0 -92 -65.5 -129t-149.5 -37 q-94 1 -172 17v100h151q37 0 55.5 11.5t18.5 37.5q0 25 -15.5 37t-53.5 12h-68l20 142q-221 31 -335.5 210t-114.5 508z" />
<glyph unicode="&#xc8;" horiz-adv-x="1120" d="M137 0v1405h875v-186h-670v-408h580v-184h-580v-441h682v-186h-887zM305 1802l2 6h205l176 -270h-162z" />
<glyph unicode="&#xc9;" horiz-adv-x="1120" d="M137 0v1405h875v-186h-670v-408h580v-184h-580v-441h682v-186h-887zM432 1538l176 270h205l2 -6l-221 -264h-162z" />
<glyph unicode="&#xca;" horiz-adv-x="1120" d="M137 0v1405h875v-186h-670v-408h580v-184h-580v-441h682v-186h-887zM299 1530l176 276h172l174 -276h-170l-90 156l-92 -156h-170z" />
<glyph unicode="&#xcb;" horiz-adv-x="1120" d="M137 0v1405h875v-186h-670v-408h580v-184h-580v-441h682v-186h-887zM305 1606v202h187v-202h-187zM629 1606v202h186v-202h-186z" />
<glyph unicode="&#xcc;" horiz-adv-x="466" d="M-20 1802l2 6h204l176 -270h-161zM131 0v1405h205v-1405h-205z" />
<glyph unicode="&#xcd;" horiz-adv-x="466" d="M106 1538l177 270h202l2 -6l-219 -264h-162zM131 0v1405h205v-1405h-205z" />
<glyph unicode="&#xce;" horiz-adv-x="466" d="M-29 1530l179 276h172l174 -276h-170l-90 156l-93 -156h-172zM131 0v1405h205v-1405h-205z" />
<glyph unicode="&#xcf;" horiz-adv-x="466" d="M-20 1606v202h186v-202h-186zM131 0v1405h205v-1405h-205zM303 1606v202h186v-202h-186z" />
<glyph unicode="&#xd0;" horiz-adv-x="1212" d="M14 655v144h123v606h443q258 0 400 -174t142 -508q0 -354 -142 -538.5t-400 -184.5h-443v655h-123zM342 186h219q164 0 255 123t91 363v102q0 219 -91 332t-255 113h-219v-420h301v-144h-301v-469z" />
<glyph unicode="&#xd1;" horiz-adv-x="1212" d="M137 0v1405h180l494 -848q18 -29 44 -89t34 -81l6 2l-4 164v852h184v-1405h-176l-498 856q-18 33 -44.5 92.5t-34.5 79.5l-9 -4q2 -18 5.5 -67.5t3.5 -96.5v-860h-185zM293 1583q0 86 47 155.5t135 69.5q51 0 129 -34q6 -2 44 -16.5t75 -14.5q31 0 49.5 14.5t22.5 50.5 h125q0 -86 -47.5 -155.5t-135.5 -69.5q-33 0 -58.5 8t-72.5 27q-41 16 -65.5 24.5t-51.5 8.5q-63 0 -71 -68h-125z" />
<glyph unicode="&#xd2;" horiz-adv-x="1306" d="M90 702q0 360 147.5 544t415.5 184t416 -183.5t148 -544.5q0 -360 -147.5 -543.5t-416.5 -183.5q-268 0 -415.5 183.5t-147.5 543.5zM305 651q0 -240 91 -365.5t257 -125.5t257 126t91 365v103q0 240 -91 365.5t-257 125.5t-257 -126t-91 -365v-103zM399 1802l2 6h205 l176 -270h-161z" />
<glyph unicode="&#xd3;" horiz-adv-x="1306" d="M90 702q0 360 147.5 544t415.5 184t416 -183.5t148 -544.5q0 -360 -147.5 -543.5t-416.5 -183.5q-268 0 -415.5 183.5t-147.5 543.5zM305 651q0 -240 91 -365.5t257 -125.5t257 126t91 365v103q0 240 -91 365.5t-257 125.5t-257 -126t-91 -365v-103zM526 1538l176 270 h205l2 -6l-221 -264h-162z" />
<glyph unicode="&#xd4;" horiz-adv-x="1306" d="M90 702q0 360 147.5 544t415.5 184t416 -183.5t148 -544.5q0 -360 -147.5 -543.5t-416.5 -183.5q-268 0 -415.5 183.5t-147.5 543.5zM305 651q0 -240 91 -365.5t257 -125.5t257 126t91 365v103q0 240 -91 365.5t-257 125.5t-257 -126t-91 -365v-103zM393 1530l176 276 h172l174 -276h-170l-90 156l-92 -156h-170z" />
<glyph unicode="&#xd5;" horiz-adv-x="1306" d="M90 702q0 360 147.5 544t415.5 184t416 -183.5t148 -544.5q0 -360 -147.5 -543.5t-416.5 -183.5q-268 0 -415.5 183.5t-147.5 543.5zM305 651q0 -240 91 -365.5t257 -125.5t257 126t91 365v103q0 240 -91 365.5t-257 125.5t-257 -126t-91 -365v-103zM340 1583 q0 86 47 155.5t135 69.5q51 0 129 -34q6 -2 44 -16.5t75 -14.5q31 0 49.5 14.5t22.5 50.5h125q0 -86 -47.5 -155.5t-135.5 -69.5q-31 0 -56.5 8t-72.5 27q-39 16 -65.5 24.5t-52.5 8.5q-63 0 -72 -68h-125z" />
<glyph unicode="&#xd6;" horiz-adv-x="1306" d="M90 702q0 360 147.5 544t415.5 184t416 -183.5t148 -544.5q0 -360 -147.5 -543.5t-416.5 -183.5q-268 0 -415.5 183.5t-147.5 543.5zM305 651q0 -240 91 -365.5t257 -125.5t257 126t91 365v103q0 240 -91 365.5t-257 125.5t-257 -126t-91 -365v-103zM399 1606v202h187 v-202h-187zM723 1606v202h186v-202h-186z" />
<glyph unicode="&#xd7;" horiz-adv-x="980" d="M72 217l309 305l-309 307l125 132l309 -310l307 310l125 -132l-309 -307l309 -305l-125 -129l-307 305l-309 -305z" />
<glyph unicode="&#xd8;" horiz-adv-x="1306" d="M90 702q0 360 147.5 544t415.5 184q190 0 324 -97l92 148h143l-147 -234q152 -186 152 -545q0 -360 -147.5 -543.5t-416.5 -183.5q-193 0 -323 95l-90 -146h-144l146 232q-152 182 -152 546zM305 651q0 -188 55 -305l510 817q-84 82 -217 82q-166 0 -257 -126t-91 -365 v-103zM436 240q84 -80 217 -80q166 0 257 126t91 365v103q0 188 -55 301z" />
<glyph unicode="&#xd9;" horiz-adv-x="1212" d="M137 451v954h207v-959q0 -139 68.5 -212.5t193.5 -73.5t194.5 74.5t69.5 211.5v959h205v-954q0 -231 -123 -353.5t-346 -122.5t-346 122t-123 354zM352 1802l2 6h205l174 -270h-160z" />
<glyph unicode="&#xda;" horiz-adv-x="1212" d="M137 451v954h207v-959q0 -139 68.5 -212.5t193.5 -73.5t194.5 74.5t69.5 211.5v959h205v-954q0 -231 -123 -353.5t-346 -122.5t-346 122t-123 354zM477 1538l176 270h205l2 -6l-221 -264h-162z" />
<glyph unicode="&#xdb;" horiz-adv-x="1212" d="M137 451v954h207v-959q0 -139 68.5 -212.5t193.5 -73.5t194.5 74.5t69.5 211.5v959h205v-954q0 -231 -123 -353.5t-346 -122.5t-346 122t-123 354zM344 1530l176 276h172l176 -276h-170l-90 156l-94 -156h-170z" />
<glyph unicode="&#xdc;" horiz-adv-x="1212" d="M137 451v954h207v-959q0 -139 68.5 -212.5t193.5 -73.5t194.5 74.5t69.5 211.5v959h205v-954q0 -231 -123 -353.5t-346 -122.5t-346 122t-123 354zM350 1606v202h187v-202h-187zM674 1606v202h188v-202h-188z" />
<glyph unicode="&#xdd;" horiz-adv-x="1120" d="M10 1405h223l336 -641h9l329 641h203l-446 -840v-565h-205v565zM432 1538l176 270h205l2 -6l-221 -264h-162z" />
<glyph unicode="&#xde;" horiz-adv-x="1120" d="M137 0v1405h205v-270h297q205 0 315.5 -112t110.5 -300q0 -190 -115.5 -307t-310.5 -117h-297v-299h-205zM342 483h285q102 0 162.5 65.5t60.5 174.5q0 106 -58.5 166.5t-164.5 60.5h-285v-467z" />
<glyph unicode="&#xdf;" horiz-adv-x="1026" d="M96 0v1059q0 227 117 336.5t307 109.5q172 0 281.5 -103.5t109.5 -279.5q0 -102 -54 -191t-140 -122v-8q104 -39 170.5 -141.5t66.5 -221.5q0 -129 -54 -228t-147.5 -154.5t-207.5 -55.5h-148v170h129q96 0 164 79t68 191q0 109 -67.5 184.5t-164.5 75.5h-129v174h115 q84 0 143.5 72t59.5 170q0 100 -53.5 160.5t-151.5 60.5q-102 0 -161.5 -69.5t-59.5 -200.5v-1067h-193z" />
<glyph unicode="&#xe0;" d="M57 279q0 207 140.5 286.5t400.5 79.5v129q0 78 -33 120t-119 42q-82 0 -117.5 -44t-35.5 -108v-26h-191q-2 12 -2 45q0 141 96.5 220t256.5 79q168 0 253 -80t85 -227v-580q0 -35 16 -53.5t41 -18.5h61v-135q-45 -27 -121 -26q-68 0 -114.5 35.5t-63.5 99.5h-10 q-92 -141 -264 -142q-107 0 -193 67t-86 237zM199 1475l2 6h205l176 -271h-162zM256 293q0 -80 34 -115t105 -35q84 0 143.5 70t59.5 186v86q-164 0 -253 -41t-89 -151z" />
<glyph unicode="&#xe1;" d="M57 279q0 207 140.5 286.5t400.5 79.5v129q0 78 -33 120t-119 42q-82 0 -117.5 -44t-35.5 -108v-26h-191q-2 12 -2 45q0 141 96.5 220t256.5 79q168 0 253 -80t85 -227v-580q0 -35 16 -53.5t41 -18.5h61v-135q-45 -27 -121 -26q-68 0 -114.5 35.5t-63.5 99.5h-10 q-92 -141 -264 -142q-107 0 -193 67t-86 237zM256 293q0 -80 34 -115t105 -35q84 0 143.5 70t59.5 186v86q-164 0 -253 -41t-89 -151zM326 1210l176 271h203l2 -6l-222 -265h-159z" />
<glyph unicode="&#xe2;" d="M57 279q0 207 140.5 286.5t400.5 79.5v129q0 78 -33 120t-119 42q-82 0 -117.5 -44t-35.5 -108v-26h-191q-2 12 -2 45q0 141 96.5 220t256.5 79q168 0 253 -80t85 -227v-580q0 -35 16 -53.5t41 -18.5h61v-135q-45 -27 -121 -26q-68 0 -114.5 35.5t-63.5 99.5h-10 q-92 -141 -264 -142q-107 0 -193 67t-86 237zM199 1202l174 277h176l174 -277h-170l-92 156l-92 -156h-170zM256 293q0 -80 34 -115t105 -35q84 0 143.5 70t59.5 186v86q-164 0 -253 -41t-89 -151z" />
<glyph unicode="&#xe3;" d="M57 279q0 207 140.5 286.5t400.5 79.5v129q0 78 -33 120t-119 42q-82 0 -117.5 -44t-35.5 -108v-26h-191q-2 12 -2 45q0 141 96.5 220t256.5 79q168 0 253 -80t85 -227v-580q0 -35 16 -53.5t41 -18.5h61v-135q-45 -27 -121 -26q-68 0 -114.5 35.5t-63.5 99.5h-10 q-92 -141 -264 -142q-107 0 -193 67t-86 237zM147 1255q0 86 47.5 156t135.5 70q31 0 56.5 -8.5t72.5 -26.5q41 -16 65.5 -24.5t50.5 -8.5q66 0 74 68h123q0 -88 -46 -157t-136 -69q-31 0 -56.5 8.5t-72.5 26.5q-41 16 -65.5 24.5t-51.5 8.5q-66 0 -74 -68h-123zM256 293 q0 -80 34 -115t105 -35q84 0 143.5 70t59.5 186v86q-164 0 -253 -41t-89 -151z" />
<glyph unicode="&#xe4;" d="M57 279q0 207 140.5 286.5t400.5 79.5v129q0 78 -33 120t-119 42q-82 0 -117.5 -44t-35.5 -108v-26h-191q-2 12 -2 45q0 141 96.5 220t256.5 79q168 0 253 -80t85 -227v-580q0 -35 16 -53.5t41 -18.5h61v-135q-45 -27 -121 -26q-68 0 -114.5 35.5t-63.5 99.5h-10 q-92 -141 -264 -142q-107 0 -193 67t-86 237zM205 1278v203h186v-203h-186zM256 293q0 -80 34 -115t105 -35q84 0 143.5 70t59.5 186v86q-164 0 -253 -41t-89 -151zM526 1278v203h189v-203h-189z" />
<glyph unicode="&#xe5;" d="M57 279q0 207 140.5 286.5t400.5 79.5v129q0 78 -33 120t-119 42q-82 0 -117.5 -44t-35.5 -108v-26h-191q-2 12 -2 45q0 141 96.5 220t256.5 79q168 0 253 -80t85 -227v-580q0 -35 16 -53.5t41 -18.5h61v-135q-45 -27 -121 -26q-68 0 -114.5 35.5t-63.5 99.5h-10 q-92 -141 -264 -142q-107 0 -193 67t-86 237zM256 293q0 -80 34 -115t105 -35q84 0 143.5 70t59.5 186v86q-164 0 -253 -41t-89 -151zM264 1348q0 82 57.5 139t139.5 57t139 -58.5t57 -137.5q0 -82 -57 -139.5t-139 -57.5q-80 0 -138.5 57.5t-58.5 139.5zM358 1348 q0 -41 30 -72t73 -31q41 0 70.5 31t29.5 72q0 43 -29.5 71.5t-70.5 28.5q-43 0 -73 -28.5t-30 -71.5z" />
<glyph unicode="&#xe6;" horiz-adv-x="1492" d="M80 279q0 207 140 286.5t401 79.5v129q0 80 -32 121t-120 41q-82 0 -118 -44t-36 -108v-26h-188q-2 12 -2 45q0 141 96 220t254 79q195 0 277 -117q98 117 278 117q184 0 274.5 -126t90.5 -398v-93h-572q2 -176 52.5 -260t160.5 -84q76 0 122 61.5t46 168.5h191 q0 -184 -99.5 -290t-261.5 -106q-227 0 -325 158q-127 -158 -316 -158q-127 0 -220 65.5t-93 238.5zM281 293q0 -80 33.5 -115t103.5 -35q86 0 144.5 65.5t58.5 178.5v98q-164 0 -252 -41t-88 -151zM825 645h367q0 143 -41 217t-121 74q-98 0 -146 -71.5t-59 -219.5z" />
<glyph unicode="&#xe7;" horiz-adv-x="870" d="M78 539q0 289 92 426t285 137q346 0 346 -426h-199q0 135 -32.5 196.5t-114.5 61.5q-90 0 -133 -89t-43 -267v-78q0 -180 43 -268.5t137 -88.5q80 0 115.5 64.5t35.5 193.5h191q0 -186 -81 -301.5t-241 -124.5l-6 -47q74 -6 120 -37.5t46 -97.5q0 -92 -66.5 -129 t-150.5 -37q-94 1 -172 17v100h151q37 0 55.5 11.5t18.5 37.5q0 25 -15.5 37t-53.5 12h-66l20 144q-145 31 -213.5 166t-68.5 387z" />
<glyph unicode="&#xe8;" d="M80 539q0 289 101.5 426t305.5 137q184 0 274.5 -126t90.5 -398v-93h-571q2 -176 52 -260t161 -84q76 0 122 61.5t46 168.5h190q0 -184 -99.5 -290t-260.5 -106q-207 0 -309.5 135.5t-102.5 428.5zM229 1475l2 6h203l176 -271h-159zM283 645h368q0 141 -41 216t-123 75 q-98 0 -146 -71.5t-58 -219.5z" />
<glyph unicode="&#xe9;" d="M80 539q0 289 101.5 426t305.5 137q184 0 274.5 -126t90.5 -398v-93h-571q2 -176 52 -260t161 -84q76 0 122 61.5t46 168.5h190q0 -184 -99.5 -290t-260.5 -106q-207 0 -309.5 135.5t-102.5 428.5zM283 645h368q0 141 -41 216t-123 75q-98 0 -146 -71.5t-58 -219.5z M354 1210l176 271h205l2 -6l-219 -265h-164z" />
<glyph unicode="&#xea;" d="M80 539q0 289 101.5 426t305.5 137q184 0 274.5 -126t90.5 -398v-93h-571q2 -176 52 -260t161 -84q76 0 122 61.5t46 168.5h190q0 -184 -99.5 -290t-260.5 -106q-207 0 -309.5 135.5t-102.5 428.5zM207 1202l174 277h174l174 -277h-170l-90 156l-92 -156h-170zM283 645 h368q0 141 -41 216t-123 75q-98 0 -146 -71.5t-58 -219.5z" />
<glyph unicode="&#xeb;" d="M80 539q0 289 101.5 426t305.5 137q184 0 274.5 -126t90.5 -398v-93h-571q2 -176 52 -260t161 -84q76 0 122 61.5t46 168.5h190q0 -184 -99.5 -290t-260.5 -106q-207 0 -309.5 135.5t-102.5 428.5zM211 1278v203h186v-203h-186zM283 645h368q0 141 -41 216t-123 75 q-98 0 -146 -71.5t-58 -219.5zM535 1278v203h188v-203h-188z" />
<glyph unicode="&#xec;" horiz-adv-x="466" d="M-20 1475l2 6h204l176 -271h-161zM137 0v1077h193v-1077h-193z" />
<glyph unicode="&#xed;" horiz-adv-x="466" d="M106 1210l177 271h202l2 -6l-219 -265h-162zM137 0v1077h193v-1077h-193z" />
<glyph unicode="&#xee;" horiz-adv-x="466" d="M-29 1202l179 277h172l174 -277h-170l-90 156l-93 -156h-172zM137 0v1077h193v-1077h-193z" />
<glyph unicode="&#xef;" horiz-adv-x="466" d="M-20 1278v203h186v-203h-186zM137 0v1077h193v-1077h-193zM303 1278v203h186v-203h-186z" />
<glyph unicode="&#xf0;" horiz-adv-x="962" d="M82 539q0 283 98.5 423t268.5 140q53 0 102 -23l2 4q-33 63 -104 156l-248 -20v131l147 12l-29 33q-74 80 -71 78l4 8h205q63 -63 96 -101l248 25v-131l-148 -14q227 -317 228 -721q0 -287 -99.5 -425.5t-300.5 -138.5q-198 0 -298.5 138.5t-100.5 425.5zM285 500 q0 -178 48 -267.5t148 -89.5q199 1 199 357v78q0 356 -199 356q-100 0 -148 -89t-48 -267v-78z" />
<glyph unicode="&#xf1;" horiz-adv-x="962" d="M119 0v1077h151l25 -127h12q43 74 110.5 113t153.5 39q272 0 273 -332v-770h-193v739q0 104 -38 147.5t-111 43.5q-80 0 -135.5 -75t-55.5 -196v-659h-192zM168 1255q0 86 47 156t135 70q31 0 56.5 -8.5t72.5 -26.5q39 -16 65.5 -24.5t53.5 -8.5q63 0 74 68h123 q0 -86 -47.5 -156t-135.5 -70q-31 0 -56.5 8.5t-72.5 26.5q-39 16 -65.5 24.5t-52.5 8.5q-63 0 -72 -68h-125z" />
<glyph unicode="&#xf2;" horiz-adv-x="962" d="M82 539q0 287 100.5 425t298.5 138q201 0 300.5 -138.5t99.5 -424.5q0 -287 -99.5 -425.5t-300.5 -138.5q-198 0 -298.5 138.5t-100.5 425.5zM227 1475l2 6h205l176 -271h-161zM285 500q0 -178 48 -267.5t148 -89.5q199 1 199 357v78q0 356 -199 356q-100 0 -148 -89 t-48 -267v-78z" />
<glyph unicode="&#xf3;" horiz-adv-x="962" d="M82 539q0 287 100.5 425t298.5 138q201 0 300.5 -138.5t99.5 -424.5q0 -287 -99.5 -425.5t-300.5 -138.5q-198 0 -298.5 138.5t-100.5 425.5zM285 500q0 -178 48 -267.5t148 -89.5q199 1 199 357v78q0 356 -199 356q-100 0 -148 -89t-48 -267v-78zM352 1210l176 271h205 l2 -6l-219 -265h-164z" />
<glyph unicode="&#xf4;" horiz-adv-x="962" d="M82 539q0 287 100.5 425t298.5 138q201 0 300.5 -138.5t99.5 -424.5q0 -287 -99.5 -425.5t-300.5 -138.5q-198 0 -298.5 138.5t-100.5 425.5zM221 1202l174 277h174l174 -277h-170l-90 156l-92 -156h-170zM285 500q0 -178 48 -267.5t148 -89.5q199 1 199 357v78 q0 356 -199 356q-100 0 -148 -89t-48 -267v-78z" />
<glyph unicode="&#xf5;" horiz-adv-x="962" d="M82 539q0 287 100.5 425t298.5 138q201 0 300.5 -138.5t99.5 -424.5q0 -287 -99.5 -425.5t-300.5 -138.5q-198 0 -298.5 138.5t-100.5 425.5zM168 1255q0 86 47 156t135 70q31 0 56.5 -8.5t72.5 -26.5q39 -16 65.5 -24.5t53.5 -8.5q63 0 74 68h123q0 -86 -47.5 -156 t-135.5 -70q-31 0 -56.5 8.5t-72.5 26.5q-39 16 -65.5 24.5t-52.5 8.5q-63 0 -72 -68h-125zM285 500q0 -178 48 -267.5t148 -89.5q199 1 199 357v78q0 356 -199 356q-100 0 -148 -89t-48 -267v-78z" />
<glyph unicode="&#xf6;" horiz-adv-x="962" d="M82 539q0 287 100.5 425t298.5 138q201 0 300.5 -138.5t99.5 -424.5q0 -287 -99.5 -425.5t-300.5 -138.5q-198 0 -298.5 138.5t-100.5 425.5zM225 1278v203h187v-203h-187zM285 500q0 -178 48 -267.5t148 -89.5q199 1 199 357v78q0 356 -199 356q-100 0 -148 -89 t-48 -267v-78zM549 1278v203h188v-203h-188z" />
<glyph unicode="&#xf7;" horiz-adv-x="1124" d="M82 430v184h958v-184h-958zM469 98v197h184v-197h-184zM469 750v198h184v-198h-184z" />
<glyph unicode="&#xf8;" horiz-adv-x="1026" d="M113 539q0 287 100 425t299 138q129 0 213 -58l53 99h125l-96 -174q104 -137 104 -430q0 -287 -99 -425.5t-300 -138.5q-129 0 -213 58l-53 -99h-125l94 175q-102 139 -102 430zM315 500q0 -109 15 -178l305 561q-47 51 -123 51q-100 0 -148.5 -89t-48.5 -267v-78z M389 197q47 -53 123 -54q199 1 199 357v78q0 104 -19 178z" />
<glyph unicode="&#xf9;" horiz-adv-x="962" d="M119 307v770h192v-739q0 -104 38 -147.5t112 -43.5q80 0 135 75t55 194v661h193v-1077h-152l-24 127h-13q-43 -74 -110.5 -113t-151.5 -39q-274 0 -274 332zM227 1475l2 6h205l176 -271h-161z" />
<glyph unicode="&#xfa;" horiz-adv-x="962" d="M119 307v770h192v-739q0 -104 38 -147.5t112 -43.5q80 0 135 75t55 194v661h193v-1077h-152l-24 127h-13q-43 -74 -110.5 -113t-151.5 -39q-274 0 -274 332zM352 1210l176 271h205l2 -6l-219 -265h-164z" />
<glyph unicode="&#xfb;" horiz-adv-x="962" d="M119 307v770h192v-739q0 -104 38 -147.5t112 -43.5q80 0 135 75t55 194v661h193v-1077h-152l-24 127h-13q-43 -74 -110.5 -113t-151.5 -39q-274 0 -274 332zM221 1202l174 277h174l174 -277h-170l-90 156l-92 -156h-170z" />
<glyph unicode="&#xfc;" horiz-adv-x="962" d="M119 307v770h192v-739q0 -104 38 -147.5t112 -43.5q80 0 135 75t55 194v661h193v-1077h-152l-24 127h-13q-43 -74 -110.5 -113t-151.5 -39q-274 0 -274 332zM225 1278v203h187v-203h-187zM549 1278v203h188v-203h-188z" />
<glyph unicode="&#xfd;" horiz-adv-x="870" d="M16 1077h209l176 -600q16 -55 35 -139q18 -74 21 -80h8q4 16 12 61q25 117 37 160l145 598h195l-281 -1022q-55 -201 -139 -314.5t-219 -113.5q-84 1 -133 17v139h76q150 0 198 217zM307 1210l174 271h205l2 -6l-219 -265h-162z" />
<glyph unicode="&#xfe;" horiz-adv-x="962" d="M119 -354v1835h192v-506l6 -2q35 61 94.5 95t131.5 34q160 0 249 -139.5t89 -425.5q0 -281 -90.5 -421.5t-235.5 -140.5q-80 0 -142.5 34t-90.5 91h-11v-454h-192zM311 502q0 -354 185 -355q94 0 139 85t45 268v78q0 182 -45 267t-139 85q-184 0 -185 -352v-76z" />
<glyph unicode="&#xff;" horiz-adv-x="870" d="M16 1077h209l176 -600q16 -55 35 -139q18 -74 21 -80h8q4 16 12 61q25 117 37 160l145 598h195l-281 -1022q-55 -201 -139 -314.5t-219 -113.5q-84 1 -133 17v139h76q150 0 198 217zM180 1278v203h187v-203h-187zM502 1278v203h188v-203h-188z" />
<glyph unicode="&#x152;" horiz-adv-x="1679" d="M88 702q0 360 120 544t341 184q195 0 311 -160v135h737v-186h-532v-408h442v-184h-442v-441h547v-186h-752v135q-115 -160 -311 -160q-221 0 -341 183.5t-120 543.5zM303 651q0 -248 71.5 -369.5t205.5 -121.5q135 0 206.5 121.5t71.5 369.5v103q0 248 -71.5 369.5 t-206.5 121.5q-133 0 -205 -122t-72 -369v-103z" />
<glyph unicode="&#x153;" horiz-adv-x="1585" d="M100 539q0 287 100.5 425t299.5 138q205 0 299 -152q102 152 311 152q184 0 274.5 -126t90.5 -398v-93h-572q2 -176 52.5 -260t160.5 -84q76 0 122 61.5t46 168.5h191q0 -184 -99.5 -290t-261.5 -106q-217 0 -313 150q-96 -150 -301 -150q-199 0 -299.5 138.5 t-100.5 425.5zM303 500q0 -178 48 -267.5t149 -89.5q198 1 198 357v78q0 356 -198 356q-100 0 -148.5 -89t-48.5 -267v-78zM905 645h367q0 143 -41 217t-121 74q-98 0 -146.5 -71.5t-58.5 -219.5z" />
<glyph unicode="&#x178;" horiz-adv-x="1120" d="M10 1405h223l336 -641h9l329 641h203l-446 -840v-565h-205v565zM305 1606v202h187v-202h-187zM629 1606v202h186v-202h-186z" />
<glyph unicode="&#x2c6;" horiz-adv-x="559" d="M14 1202l176 277h172l175 -277h-170l-91 156l-92 -156h-170z" />
<glyph unicode="&#x2dc;" horiz-adv-x="559" d="M-35 1255q0 86 47 156t135 70q31 0 56.5 -8.5t72.5 -26.5q39 -16 66 -24.5t53 -8.5q63 0 72 68h125q0 -86 -47 -156t-135 -70q-31 0 -56.5 8.5t-72.5 26.5q-39 16 -66 24.5t-53 8.5q-63 0 -72 -68h-125z" />
<glyph unicode="&#x2000;" horiz-adv-x="936" />
<glyph unicode="&#x2001;" horiz-adv-x="1872" />
<glyph unicode="&#x2002;" horiz-adv-x="936" />
<glyph unicode="&#x2003;" horiz-adv-x="1872" />
<glyph unicode="&#x2004;" horiz-adv-x="624" />
<glyph unicode="&#x2005;" horiz-adv-x="468" />
<glyph unicode="&#x2006;" horiz-adv-x="312" />
<glyph unicode="&#x2007;" horiz-adv-x="312" />
<glyph unicode="&#x2008;" horiz-adv-x="234" />
<glyph unicode="&#x2009;" horiz-adv-x="374" />
<glyph unicode="&#x200a;" horiz-adv-x="104" />
<glyph unicode="&#x2010;" horiz-adv-x="559" d="M25 446v213h507v-213h-507z" />
<glyph unicode="&#x2011;" horiz-adv-x="559" d="M25 446v213h507v-213h-507z" />
<glyph unicode="&#x2012;" horiz-adv-x="559" d="M25 446v213h507v-213h-507z" />
<glyph unicode="&#x2013;" d="M0 469v168h932v-168h-932z" />
<glyph unicode="&#x2014;" horiz-adv-x="1679" d="M0 469v168h1679v-168h-1679z" />
<glyph unicode="&#x2018;" horiz-adv-x="403" d="M86 891v219l111 295h118l-90 -275h90v-239h-229z" />
<glyph unicode="&#x2019;" horiz-adv-x="403" d="M86 891l92 274h-92v240h229v-219l-108 -295h-121z" />
<glyph unicode="&#x201a;" horiz-adv-x="403" d="M82 0v240h229v-220l-110 -294h-119l90 274h-90z" />
<glyph unicode="&#x201c;" horiz-adv-x="647" d="M59 891v219l111 295h119l-92 -275h92v-239h-230zM356 891v219l109 295h121l-92 -275h92v-239h-230z" />
<glyph unicode="&#x201d;" horiz-adv-x="647" d="M63 891l91 274h-91v240h230v-219l-111 -295h-119zM358 891l93 274h-93v240h230v-219l-109 -295h-121z" />
<glyph unicode="&#x201e;" horiz-adv-x="647" d="M63 0v240h230v-220l-111 -294h-119l91 274h-91zM358 0v240h230v-220l-109 -294h-121l93 274h-93z" />
<glyph unicode="&#x2022;" horiz-adv-x="587" d="M63 705q0 96 68 165.5t162 69.5q96 0 163.5 -69.5t67.5 -165.5q0 -98 -67.5 -168t-163.5 -70q-94 0 -162 70.5t-68 167.5z" />
<glyph unicode="&#x2026;" horiz-adv-x="1679" d="M166 0v240h229v-240h-229zM725 0v240h229v-240h-229zM1282 0v240h229v-240h-229z" />
<glyph unicode="&#x202f;" horiz-adv-x="374" />
<glyph unicode="&#x2039;" horiz-adv-x="559" d="M53 668l285 409h160l-230 -409l230 -410h-160z" />
<glyph unicode="&#x203a;" horiz-adv-x="559" d="M61 258l230 410l-230 409h160l285 -409l-285 -410h-160z" />
<glyph unicode="&#x205f;" horiz-adv-x="468" />
<glyph unicode="&#x20ac;" d="M33 487v144h110q-2 23 -2 71q0 47 2 72h-110v144h127q47 244 196.5 378t380.5 134q78 0 142 -21v-164q-59 16 -119 17q-145 0 -251 -88.5t-149 -255.5h400v-144h-422q-2 -25 -2 -72q0 -49 2 -71h422v-144h-400q43 -170 147.5 -257t252.5 -87q59 0 119 17v-164 q-76 -20 -142 -21q-231 0 -380.5 134.5t-196.5 377.5h-127z" />
<glyph unicode="&#x2122;" horiz-adv-x="1679" d="M162 1292v113h559v-113h-219v-712h-121v712h-219zM801 578v827h182l160 -635h8l158 635h176v-827h-119v659h-8l-166 -659h-109l-165 659h-9v-659h-108z" />
<glyph unicode="&#x25fc;" horiz-adv-x="1075" d="M0 0v1075h1075v-1075h-1075z" />
<glyph unicode="&#xfb01;" horiz-adv-x="899" d="M18 909v168h99v160q0 111 53 185.5t174 74.5q37 0 79 -7t73 -17v-138h-93q-94 0 -94 -96v-162h187v-168h-187v-909h-192v909h-99zM600 0v1077h193v-1077h-193zM600 1274v207h193v-207h-193z" />
<glyph unicode="&#xfb02;" horiz-adv-x="899" d="M18 909v168h99v160q0 111 53 185.5t174 74.5q37 0 79 -7t73 -17v-138h-93q-94 0 -94 -96v-162h187v-168h-187v-909h-192v909h-99zM600 0v1481h193v-1481h-193z" />
</font>
</defs>
</svg>
