<?xml version="1.0" encoding="UTF-8"?>
<svg width="60px" height="60px" viewBox="0 0 60 60" version="1.1" xmlns="http://www.w3.org/2000/svg" xmlns:xlink="http://www.w3.org/1999/xlink">
    <!-- Generator: Sketch 52.2 (67145) - http://www.bohemiancoding.com/sketch -->
    <title>noun_house key_534162_000000</title>
    <desc>Created with Sketch.</desc>
    <g id="Inflections" stroke="none" stroke-width="1" fill="none" fill-rule="evenodd">
        <g id="T04_MANASQUAN_Client_Services_T_Landscape" transform="translate(-155.000000, -1072.000000)" fill="#666666" fill-rule="nonzero">
            <g id="Group-40" transform="translate(123.000000, 1047.000000)">
                <g id="Group-28" transform="translate(7.000000, 0.000000)">
                    <g id="noun_house-key_534162_000000" transform="translate(25.000000, 25.000000)">
                        <path d="M59.635,35.365 L55,30.7325 L55,16.25 C55,15.56 54.44,15 53.75,15 L46.25,15 C45.56,15 45,15.56 45,16.25 L45,20.7325 L44.48,20.2125 C44.7975,19.13 45,18.02 45,16.8775 C45,10.33 39.6725,5.0025 33.125,5.0025 C33.115,5.0025 33.105,5.005 33.0975,5.005 C31.075,1.99 27.6425,0 23.75,0 C17.5475,0 12.5,5.0475 12.5,11.25 C12.5,11.84 12.5525,12.44 12.66,13.07 L0.365,25.3675 C0.1325,25.6 0,25.9175 0,26.25 L0,33.75 C0,34.44 0.56,35 1.25,35 L8.75,35 C9.0825,35 9.4,34.8675 9.635,34.635 L12.135,32.135 C12.3675,31.9 12.5,31.5825 12.5,31.25 L12.5,30 L13.75,30 C14.0825,30 14.4,29.8675 14.635,29.635 L17.135,27.135 C17.3675,26.9 17.5,26.5825 17.5,26.25 L17.5,25 L18.75,25 C19.0825,25 19.4,24.8675 19.635,24.635 L21.93,22.34 C22.1775,22.3825 22.4075,22.3775 22.6475,22.405 C23.5775,24.1675 24.9075,25.645 26.515,26.7225 C26.5175,26.7225 26.5175,26.725 26.52,26.725 C27.4525,27.35 28.4725,27.8425 29.55,28.185 C29.585,28.195 29.615,28.2125 29.65,28.2225 C30.1275,28.37 30.62,28.4775 31.12,28.5625 C31.2025,28.5775 31.2825,28.605 31.3675,28.6175 C31.945,28.705 32.535,28.7525 33.13,28.7525 C33.6,28.7525 34.065,28.7125 34.5275,28.6475 C34.9275,28.6 35.3225,28.5225 35.715,28.435 L35.7175,28.435 C36.0325,28.365 36.35,28.315 36.66,28.22 C37.32,28.015 37.6875,27.315 37.4825,26.655 C37.28,25.9975 36.59,25.6325 35.9175,25.8325 C35.6275,25.9225 35.325,25.975 35.0275,26.0375 C35.1375,24.0675 36.7575,22.5 38.75,22.5 C40.8175,22.5 42.5,24.1825 42.5,26.25 C42.5,28.3175 40.8175,30 38.75,30 C38.545,30 38.345,29.9725 38.15,29.94 C38.005,30.2475 37.7475,30.4975 37.395,30.605 C36.01,31.0325 34.575,31.25 33.125,31.25 C30.045,31.25 27.135,30.235 24.7325,28.5 L17.8675,35.365 C17.51,35.7225 17.4025,36.26 17.5975,36.7275 C17.7925,37.195 18.245,37.5 18.75,37.5 L22.5,37.5 L22.5,58.75 C22.5,59.44 23.06,60 23.75,60 L33.75,60 C34.44,60 35,59.44 35,58.75 L35,42.5 L42.5,42.5 L42.5,58.75 C42.5,59.44 43.06,60 43.75,60 L53.75,60 C54.44,60 55,59.44 55,58.75 L55,37.5 L58.75,37.5 C59.255,37.5 59.7125,37.195 59.905,36.7275 C60.0975,36.26 59.99,35.725 59.635,35.365 Z M17.135,19.635 L7.135,29.635 C6.89,29.8775 6.57,30 6.25,30 C5.93,30 5.61,29.8775 5.365,29.635 C4.8775,29.1475 4.8775,28.355 5.365,27.8675 L15.365,17.8675 C15.8525,17.38 16.645,17.38 17.1325,17.8675 C17.62,18.355 17.6225,19.145 17.135,19.635 Z M22.5,8.75 C22.5,6.6825 24.1825,5 26.25,5 C27.1675,5 27.995,5.3425 28.6475,5.8925 C28.355,6.0125 28.0625,6.1275 27.7775,6.27 C27.1625,6.5825 26.915,7.3325 27.225,7.95 C27.535,8.565 28.29,8.8125 28.905,8.5025 C29.235,8.335 29.5925,8.25 29.935,8.125 C29.9725,8.3275 30,8.535 30,8.75 C30,10.8175 28.3175,12.5 26.25,12.5 C24.1825,12.5 22.5,10.8175 22.5,8.75 Z M42.39,18.1225 L39.635,15.365 C39.1475,14.8775 38.355,14.8775 37.8675,15.365 L28.3275,24.905 C27.23,24.25 26.2775,23.3725 25.5225,22.32 C30.88,21.465 35,16.8475 35,11.25 C35,9.975 34.74,8.7675 34.3475,7.6225 C38.935,8.23 42.5,12.1225 42.5,16.875 C42.5,17.2975 42.445,17.71 42.39,18.1225 Z" id="Shape"></path>
                    </g>
                </g>
            </g>
        </g>
    </g>
</svg>