<?xml version="1.0" encoding="UTF-8"?>
<svg width="60px" height="60px" viewBox="0 0 60 60" version="1.1" xmlns="http://www.w3.org/2000/svg" xmlns:xlink="http://www.w3.org/1999/xlink">
    <!-- Generator: Sketch 52.2 (67145) - http://www.bohemiancoding.com/sketch -->
    <title>noun_adress ok_1661297_000000</title>
    <desc>Created with Sketch.</desc>
    <g id="Inflections" stroke="none" stroke-width="1" fill="none" fill-rule="evenodd">
        <g id="T04_MANASQUAN_Client_Services_T_Landscape" transform="translate(-584.000000, -822.000000)" fill="#666666" fill-rule="nonzero">
            <g id="Group-22" transform="translate(552.000000, 797.000000)">
                <g id="Group-12" transform="translate(7.000000, 0.000000)">
                    <g id="noun_adress-ok_1661297_000000" transform="translate(25.000000, 25.000000)">
                        <path d="M27.924,53.2254 C24.42,57.3786 21.7104,60 21.7104,60 C21.7104,60 0,38.9922 0,21.711 C0,9.72 9.72,0 21.7104,0 C33.7008,0 43.4208,9.72 43.4208,21.711 C43.4208,22.824 43.3302,23.9526 43.161,25.0902 C41.028,25.1208 38.8998,25.5198 36.8796,26.2902 C37.317,24.84 37.5522,23.3028 37.5522,21.711 C37.5522,12.9612 30.4596,5.8686 21.7098,5.8686 C12.96,5.8686 5.868,12.9612 5.868,21.711 C5.868,30.4602 12.9612,37.5528 21.7104,37.5528 C23.3028,37.5528 24.84,37.317 26.2896,36.8802 C24.2574,42.2118 24.8022,48.3 27.924,53.2254 Z M60,43.4226 C60,52.578 52.578,60 43.4226,60 C34.2666,60 26.8446,52.578 26.8446,43.4226 C26.8446,34.2666 34.2666,26.8446 43.4226,26.8446 C52.578,26.8446 60,34.2666 60,43.4226 Z M53.871,38.8884 L51.1368,36.1536 L40.7028,46.5888 L35.7084,41.5938 L32.973,44.3286 L40.7028,52.0578 L53.871,38.8884 Z" id="Shape"></path>
                    </g>
                </g>
            </g>
        </g>
    </g>
</svg>