<?xml version="1.0" encoding="UTF-8"?>
<svg width="60px" height="60px" viewBox="0 0 60 60" version="1.1" xmlns="http://www.w3.org/2000/svg" xmlns:xlink="http://www.w3.org/1999/xlink">
    <!-- Generator: Sketch 52.2 (67145) - http://www.bohemiancoding.com/sketch -->
    <title>noun_horizontal arrows_301291_000000</title>
    <desc>Created with Sketch.</desc>
    <g id="Inflections" stroke="none" stroke-width="1" fill="none" fill-rule="evenodd">
        <g id="T04_MANASQUAN_Client_Services_T_Landscape" transform="translate(-584.000000, -1072.000000)" fill="#666666" fill-rule="nonzero">
            <g id="Group-38" transform="translate(559.000000, 1047.000000)">
                <g id="Group-26">
                    <g id="noun_horizontal-arrows_301291_000000" transform="translate(25.000000, 25.000000)">
                        <path d="M49.2045,1.13157895 C48.72975,0.465263158 47.91825,0.936842105 47.91825,1.87894737 L47.91825,4.99368421 C47.91825,5.57789474 47.58075,6.05157895 47.1645,6.05157895 L15.60825,6.05157895 C15.192,6.05157895 14.85525,6.52526316 14.85525,7.10842105 L14.85525,24.9378947 C14.85525,25.5221053 15.19275,25.9947368 15.60825,25.9947368 L47.16525,25.9947368 C47.5815,25.9947368 47.919,26.4684211 47.919,27.0526316 L47.919,30.1673684 C47.919,31.1094737 48.7305,31.5810526 49.20525,30.9147368 L59.28375,16.7694737 C59.57775,16.3568421 59.57775,15.6873684 59.28375,15.2736842 L49.2045,1.13157895 Z" id="Shape"></path>
                        <path d="M10.8675,29.3747368 L0.78975,43.5189474 C0.49575,43.9315789 0.49575,44.6010526 0.78975,45.0147368 L10.8675,59.1589474 C11.34225,59.8252632 12.15375,59.3536842 12.15375,58.4115789 L12.15375,55.2968421 C12.15375,54.7126316 12.49125,54.2389474 12.9075,54.2389474 L44.4645,54.2389474 C44.88075,54.2389474 45.2175,53.7652632 45.2175,53.1810526 L45.2175,35.3526316 C45.2175,34.7684211 44.88,34.2947368 44.4645,34.2947368 L12.90675,34.2947368 C12.4905,34.2947368 12.153,33.8210526 12.153,33.2378947 L12.153,30.1231579 C12.15375,29.18 11.34225,28.7084211 10.8675,29.3747368 Z" id="Shape"></path>
                    </g>
                </g>
            </g>
        </g>
    </g>
</svg>