<?xml version="1.0" encoding="UTF-8"?>
<svg width="51px" height="60px" viewBox="0 0 51 60" version="1.1" xmlns="http://www.w3.org/2000/svg" xmlns:xlink="http://www.w3.org/1999/xlink">
    <!-- Generator: Sketch 52.2 (67145) - http://www.bohemiancoding.com/sketch -->
    <title>noun_customer support_154239_000000</title>
    <desc>Created with Sketch.</desc>
    <g id="Inflections" stroke="none" stroke-width="1" fill="none" fill-rule="evenodd">
        <g id="T04_MANASQUAN_Client_Services_T_Landscape" transform="translate(-804.000000, -1072.000000)" fill="#666666" fill-rule="nonzero">
            <g id="Group-37" transform="translate(774.000000, 1047.000000)">
                <g id="Group-25">
                    <g id="noun_customer-support_154239_000000" transform="translate(30.000000, 25.000000)">
                        <path d="M35.6745455,1.8 L35.6745455,20.6272727 C39.2739394,21.6727273 41.9090909,24.9890909 41.9090909,28.9266667 C41.9090909,33.7024242 38.0369697,37.5751515 33.2606061,37.5751515 C31.5848485,37.5751515 30.0260606,37.0909091 28.7024242,36.2660606 C28.7024242,36.2654545 28.7024242,36.2654545 28.7036364,36.2642424 C24.7290909,39.4430303 19.9236364,41.7915152 14.6387879,43.0715152 C13.7284848,43.2915152 12.7975758,43.4806061 11.8727273,43.6351515 C11.8042424,43.6460606 11.7357576,43.650303 11.6684848,43.650303 C11.0739394,43.650303 10.5484848,43.2206061 10.4484848,42.6145455 C10.3369697,41.9393939 10.7933333,41.3006061 11.4684848,41.1884848 C12.3339394,41.0460606 13.2042424,40.8684848 14.0557576,40.6624242 C18.8175758,39.509697 23.1533333,37.4321212 26.7690909,34.6315152 C26.9836364,34.8787879 27.3521212,35.2363636 27.6975758,35.529697 C28.0509091,35.829697 28.3927273,36.069697 28.7042424,36.2618182 C30.7745455,34.6054545 32.6254545,32.7284848 34.190303,30.6515152 C34.6030303,30.1054545 34.4933333,29.3284848 33.9472727,28.9169697 C33.4006061,28.5054545 32.6242424,28.6139394 32.2133333,29.1606061 C30.6781818,31.1993939 28.8430303,33.0327273 26.7751515,34.6321212 C25.4345455,33.1090909 24.6139394,31.1151515 24.6139394,28.9248485 C24.6139394,24.9872727 27.2478788,21.670303 30.8484848,20.6254545 L30.8484848,0.653939394 C29.9709091,0.546666667 29.0775758,0.486060606 28.169697,0.486060606 C18.1860606,0.486060606 8.97878788,7.98363636 7.06727273,16.24 C6.6430303,18.0751515 6.16242424,22.870303 6.16242424,22.870303 L0.510909091,34.0593939 C0.418787879,34.2648485 0.374545455,34.5024242 0.374545455,34.7478788 C0.374545455,35.7242424 1.1630303,36.5193939 2.14545455,36.5193939 L6.16181818,36.5193939 L6.16181818,43.0533333 C6.16181818,48.1666667 8.39151515,51.6521212 14.8333333,51.6521212 L16.3606061,51.6521212 L16.3606061,59.6969697 L41.7563636,59.6969697 L41.7563636,41.0218182 C46.8769697,36.9963636 50.1709091,29.5115152 50.1709091,22.4939394 C50.1709091,12.9733333 44.1321212,4.86848485 35.6745455,1.8 Z" id="Shape"></path>
                    </g>
                </g>
            </g>
        </g>
    </g>
</svg>