<?xml version="1.0" encoding="UTF-8"?>
<svg width="50px" height="60px" viewBox="0 0 50 60" version="1.1" xmlns="http://www.w3.org/2000/svg" xmlns:xlink="http://www.w3.org/1999/xlink">
    <!-- Generator: Sketch 52.2 (67145) - http://www.bohemiancoding.com/sketch -->
    <title>noun_FAQ_870046_000000</title>
    <desc>Created with Sketch.</desc>
    <g id="Inflections" stroke="none" stroke-width="1" fill="none" fill-rule="evenodd">
        <g id="T04_MANASQUAN_Client_Services_T_Landscape" transform="translate(-160.000000, -1322.000000)" fill="#666666" fill-rule="nonzero">
            <g id="Group-30" transform="translate(130.000000, 1297.000000)">
                <g id="Group-29">
                    <g id="noun_FAQ_870046_000000" transform="translate(30.000000, 25.000000)">
                        <path d="M5.06045429,0 C2.25696143,0 0,2.25695714 0,5.06045714 L0,42.2461 L0,44.1408571 L0,60 L8.72837571,49.2013143 L44.1410886,49.2013143 C46.9445743,49.2013143 49.2015457,46.9443429 49.2015457,44.1408571 L49.2015457,5.06045714 C49.2015457,2.25695714 46.9445743,0 44.1410886,0 L5.06045429,0 Z M23.6486229,7.55185714 C23.9963257,7.55185714 24.3395686,7.56928571 24.6781986,7.60371429 C25.0168286,7.63814286 25.3506086,7.68942857 25.6784771,7.75647143 C26.0063457,7.82361429 26.32846,7.90645714 26.6438743,8.00457143 C26.9593029,8.10271429 27.2680029,8.21614286 27.5692886,8.34357143 C27.8705743,8.471 28.1645886,8.61261429 28.45006,8.76768571 C28.7355171,8.92275714 29.0126457,9.09121429 29.2806029,9.27224286 C29.5485457,9.45327143 29.80706,9.64685714 30.0558029,9.85212857 C30.3045457,10.0574143 30.5433886,10.2743857 30.7712457,10.5022429 C30.9991171,10.7301 31.2160743,10.9687143 31.42136,11.2174571 C31.6266457,11.4662143 31.8202314,11.7251857 32.00126,11.9931286 C32.1822743,12.2610714 32.3507314,12.5382143 32.5058171,12.8236714 C32.6608886,13.1091286 32.8024886,13.4029286 32.9299171,13.7042143 C33.0573457,14.0054857 33.1705886,14.3142 33.2686886,14.6296143 C33.3668314,14.9450429 33.4499171,15.2671571 33.5170171,15.5950143 C33.58416,15.9228857 33.63516,16.2564429 33.6695457,16.5950714 C33.7039743,16.9337 33.7216886,17.2774 33.7216886,17.6251 C33.7216314,18.037 33.6964029,18.4456286 33.6469743,18.8490714 C33.5975457,19.2525 33.5239743,19.6507714 33.42726,20.0418714 C33.3305457,20.4329571 33.2107314,20.8170286 33.0687171,21.1918857 C32.9267171,21.5667429 32.76246,21.9323 32.5771743,22.2870286 C32.3919029,22.6417714 32.1854314,22.9854143 31.9589171,23.3161429 C31.7324171,23.6468714 31.4859314,23.9645286 31.2202171,24.2673571 C30.9545171,24.5701857 30.66976,24.8582429 30.3668886,25.1293 C30.0640171,25.4003429 29.7429886,25.6544571 29.4049743,25.8898429 L29.4049743,30.8210286 L23.6486086,30.8210286 L23.6486086,22.9018 C24.0128829,22.9018 24.3681729,22.8649429 24.7116671,22.7946571 C25.0551614,22.7243714 25.3865386,22.6205429 25.70218,22.4870429 C26.0178214,22.3534714 26.31804,22.1905 26.5987571,22.0008429 C26.8794743,21.8112 27.1408171,21.5950429 27.3795457,21.3563143 C27.61826,21.1176 27.8341886,20.8560143 28.0238457,20.5753 C28.2134886,20.2945714 28.3769886,19.9948429 28.5104886,19.6791857 C28.64406,19.3635429 28.7475886,19.0321714 28.8178743,18.6886714 C28.88816,18.3451714 28.9248743,17.9894429 28.9248743,17.6251429 C28.9248743,17.2608857 28.88816,16.9051143 28.8178743,16.5616286 C28.7475886,16.2181429 28.6440029,15.8869857 28.5104886,15.5713429 C28.37706,15.2557143 28.2134886,14.9557143 28.0238457,14.675 C27.8341886,14.3942857 27.61826,14.1327 27.3795457,13.8939857 C27.1408171,13.6552714 26.8794743,13.4393286 26.5987571,13.2496857 C26.31804,13.0600429 26.0178214,12.8967714 25.70218,12.7632571 C25.3865386,12.6298286 25.0551614,12.5261714 24.7116671,12.4558857 C24.3681729,12.3856 24.0128829,12.3484571 23.6486086,12.3484571 C23.2843357,12.3484571 22.92858,12.3856 22.5850857,12.4558857 C22.2415914,12.5261714 21.9102143,12.6297571 21.5945729,12.7632571 C21.2789314,12.8968286 20.9789443,13.0600429 20.6982271,13.2496857 C20.4175114,13.4393286 20.1559286,13.6552714 19.91721,13.8939857 C19.67849,14.1327 19.4625586,14.3942857 19.2729114,14.675 C19.0832614,14.9557143 18.9199971,15.2557143 18.78649,15.5713429 C18.65299,15.8869857 18.5493943,16.2181429 18.4791043,16.5616286 C18.4088186,16.9051143 18.3719186,17.2608857 18.3719186,17.6251429 L13.5751371,17.6251429 C13.5751443,17.2774429 13.5928229,16.9337429 13.6272229,16.5951143 C13.6616229,16.2564857 13.7126514,15.9229286 13.7797514,15.5950571 C13.8468514,15.2672 13.9299671,14.9450857 14.0280771,14.6296571 C14.1261914,14.3142429 14.2394157,14.0055286 14.3668514,13.7042571 C14.4942943,13.4029714 14.6361171,13.1091714 14.7911914,12.8237143 C14.9462657,12.5382571 15.1147229,12.2611143 15.2957486,11.9931714 C15.4767729,11.7252286 15.6701214,11.4662571 15.8754086,11.2175 C16.0806943,10.9687571 16.2976586,10.7301429 16.52552,10.5022857 C16.7533814,10.2744286 16.9922186,10.0574571 17.2409671,9.85217143 C17.4897157,9.6469 17.7484571,9.45331429 18.0164057,9.27228571 C18.2843529,9.09125714 18.5614886,8.9228 18.8469486,8.76772857 C19.1324086,8.61265714 19.4261986,8.47105714 19.7274814,8.34361429 C20.0287657,8.21618571 20.3374714,8.10272857 20.6528914,8.00461429 C20.96831,7.90647143 21.2904257,7.82361429 21.6182943,7.75651429 C21.9461629,7.68937143 22.2799414,7.63808571 22.6185729,7.60375714 C22.9572014,7.56932857 23.30091,7.5519 23.6486129,7.5519 L23.6486229,7.55185714 Z M23.2570686,35.1804286 L29.01646,35.1804286 L29.01646,39.6598286 L23.2570686,39.6598286 L23.2570686,35.1804286 Z" id="Shape"></path>
                    </g>
                </g>
            </g>
        </g>
    </g>
</svg>