<?xml version="1.0" encoding="UTF-8"?>
<svg width="60px" height="38px" viewBox="0 0 60 38" version="1.1" xmlns="http://www.w3.org/2000/svg" xmlns:xlink="http://www.w3.org/1999/xlink">
    <!-- Generator: Sketch 52.2 (67145) - http://www.bohemiancoding.com/sketch -->
    <title>noun_Card_144827_000000</title>
    <desc>Created with Sketch.</desc>
    <g id="Inflections" stroke="none" stroke-width="1" fill="none" fill-rule="evenodd">
        <g id="T04_MANASQUAN_Client_Services_T_Landscape" transform="translate(-155.000000, -833.000000)" fill="#666666" fill-rule="nonzero">
            <g id="Group-20" transform="translate(130.000000, 797.000000)">
                <g id="Group-19">
                    <g id="noun_Card_144827_000000" transform="translate(25.000000, 36.000000)">
                        <path d="M59.375,11.5 L59.375,5.125 C59.375,2.375 57.125,0 54.25,0 L5.75,0 C3,0 0.625,2.25 0.625,5.125 L0.625,11.5 L59.375,11.5 Z" id="Shape"></path>
                        <path d="M0.625,14.125 L0.625,32.375 C0.625,35.125 2.875,37.5 5.75,37.5 L54.25,37.5 C57,37.5 59.375,35.25 59.375,32.375 L59.375,14.125 L0.625,14.125 Z M54.375,32.25 L38.25,32.25 L38.25,29.75 L54.375,29.75 L54.375,32.25 Z" id="Shape"></path>
                    </g>
                </g>
            </g>
        </g>
    </g>
</svg>