<?xml version="1.0" encoding="UTF-8"?>
<svg width="60px" height="60px" viewBox="0 0 60 60" version="1.1" xmlns="http://www.w3.org/2000/svg" xmlns:xlink="http://www.w3.org/1999/xlink">
    <!-- Generator: Sketch 52.2 (67145) - http://www.bohemiancoding.com/sketch -->
    <title>Group 10</title>
    <desc>Created with Sketch.</desc>
    <g id="Inflections" stroke="none" stroke-width="1" fill="none" fill-rule="evenodd">
        <g id="T04_MANASQUAN_Client_Services_T_Landscape" transform="translate(-799.000000, -822.000000)" fill="#666666" fill-rule="nonzero">
            <g id="Group-24" transform="translate(752.000000, 797.000000)">
                <g id="Group-23" transform="translate(22.000000, 0.000000)">
                    <g id="Group-10" transform="translate(25.000000, 25.000000)">
                        <g id="noun_payment_1168142_000000">
                            <path d="M59.6064987,21.1317409 L48.4232706,2.31969898 C47.0964469,0.0471033152 44.6323458,-0.584173258 42.7368834,0.552124574 L12.9149417,18.2909963 C11.2722076,19.2379112 10.5772048,21.1948685 11.3353897,23.1518259 C8.74492445,24.793145 4.51172511,40.9538253 4.51172511,40.9538253 L0.84716448,43.9839528 C0.0257974425,44.6783571 -0.226930877,45.8146549 0.215343682,46.8246974 L6.65991582,58.8189523 C7.22855454,59.8289948 8.42901405,60.2708884 9.50310941,59.8289948 C11.524936,58.9452076 14.8735862,57.6826545 17.906326,57.2407609 C20.244063,56.9251226 23.1504386,54.6525269 23.5927132,54.0212504 C25.1090831,52.1905483 40.4623285,33.3153787 40.4623285,33.3153787 C41.9786984,31.421549 41.5996059,28.5808044 39.5777794,27.191996 C37.7454991,25.9294428 35.2182159,26.3713364 33.765028,28.0757832 L26.4990889,36.9767829 C25.3618114,38.3655913 23.2768028,38.1762084 22.3922537,36.6611446 L18.6013289,30.2852512 L50.5082792,11.2838263 L56.9528513,22.0786557 C57.2687617,22.6468046 57.0792155,23.4043365 56.5105768,23.7831025 L44.3164354,31.0427831 C44.3164354,31.1059107 44.3164354,31.1059107 44.3164354,31.1690384 C44.3164354,32.1159533 44.000525,33.0628681 43.3687042,33.8204 L35.9132188,42.9739103 L36.102765,43.2895486 C36.86095,44.6783571 38.6300482,45.1202507 40.0200539,44.3627188 L40.4623285,44.1102082 C41.8523343,43.3526763 42.420973,41.7113572 42.0418805,40.2594211 C42.3577909,40.3856764 42.6737013,40.3856764 42.9896117,40.3856764 C43.5582504,40.3856764 44.1268891,40.2594211 44.6323458,39.9437828 C46.2118978,39.0599956 46.7805365,36.9767829 45.8959874,35.3985914 C46.2118978,35.5248467 46.5278082,35.5248467 46.9069006,35.5248467 C47.4755394,35.5248467 48.0441781,35.3985914 48.5496347,35.0829531 C50.0660046,34.2622936 50.6346434,32.3684639 49.9396405,30.8534001 L57.9637646,26.1188258 C59.859227,25.0456556 60.4910478,22.583677 59.6064987,21.1317409 Z M15.5685891,25.1719109 L13.8626729,22.3311664 C13.4835804,21.7630174 13.7363088,21.0054856 14.3049475,20.6267196 L44.1268891,2.8878479 C44.6955279,2.57220961 45.4537128,2.76159258 45.8328053,3.3297415 L47.5387214,6.17048608 L15.5685891,25.1719109 Z" id="Shape"></path>
                            <path d="M46.7246308,25.8471412 L52.4000237,22.4836597 C52.9739398,22.1663501 53.1652452,21.4048071 52.8464029,20.8336499 L50.9333491,17.5970922 C50.6145068,17.0259349 49.8492853,16.8355492 49.2753692,17.1528588 L43.5999763,20.5163403 C43.0260602,20.8336499 42.8347548,21.5951929 43.1535971,22.1663501 L45.0666509,25.4029078 C45.3854932,25.9740651 46.1507147,26.1644508 46.7246308,25.8471412 Z" id="Shape"></path>
                        </g>
                    </g>
                </g>
            </g>
        </g>
    </g>
</svg>