<?xml version="1.0" encoding="UTF-8"?>
<svg width="35px" height="60px" viewBox="0 0 35 60" version="1.1" xmlns="http://www.w3.org/2000/svg" xmlns:xlink="http://www.w3.org/1999/xlink">
    <!-- Generator: Sketch 52.2 (67145) - http://www.bohemiancoding.com/sketch -->
    <title>noun_Mobile_1575537_000000</title>
    <desc>Created with Sketch.</desc>
    <g id="Inflections" stroke="none" stroke-width="1" fill="none" fill-rule="evenodd">
        <g id="T04_MANASQUAN_Client_Services_T_Landscape" transform="translate(-383.000000, -1322.000000)" fill="#666666" fill-rule="nonzero">
            <g id="Group-32" transform="translate(332.000000, 1297.000000)">
                <g id="Group-31" transform="translate(13.000000, 0.000000)">
                    <g id="noun_Mobile_1575537_000000" transform="translate(38.000000, 25.000000)">
                        <path d="M6.13636364,0.681811364 C2.964,0.681811364 0.354068182,3.05528182 0.0212727273,6.13635682 L34.0696364,6.13635682 C33.7368409,3.05528182 31.1269091,0.681811364 27.9545455,0.681811364 L6.13636364,0.681811364 Z M0,8.86362955 L0,48.4091045 L34.0909091,48.4091045 L34.0909091,8.86362955 L0,8.86362955 Z M0,51.1363773 L0,53.1818318 C0,56.5813773 2.73681818,59.3181955 6.13636364,59.3181955 L27.9545455,59.3181955 C31.3540909,59.3181955 34.0909091,56.5813773 34.0909091,53.1818318 L34.0909091,51.1363773 L0,51.1363773 Z M17.0454545,53.1818318 C18.1751591,53.1818318 19.0909091,54.0975818 19.0909091,55.2272864 C19.0909091,56.3569227 18.1751591,57.2727409 17.0454545,57.2727409 C15.9158182,57.2727409 15,56.3569227 15,55.2272864 C15,54.0975818 15.9158182,53.1818318 17.0454545,53.1818318 Z" id="Shape"></path>
                    </g>
                </g>
            </g>
        </g>
    </g>
</svg>