<?xml version="1.0" encoding="UTF-8"?>
<svg width="60px" height="35px" viewBox="0 0 60 35" version="1.1" xmlns="http://www.w3.org/2000/svg" xmlns:xlink="http://www.w3.org/1999/xlink">
    <!-- Generator: Sketch 52.2 (67145) - http://www.bohemiancoding.com/sketch -->
    <title>noun_Laptop_1945341_000000</title>
    <desc>Created with Sketch.</desc>
    <g id="Inflections" stroke="none" stroke-width="1" fill="none" fill-rule="evenodd">
        <g id="T04_MANASQUAN_Client_Services_T_Landscape" transform="translate(-584.000000, -1335.000000)" fill="#666666" fill-rule="nonzero">
            <g id="Group-34" transform="translate(546.000000, 1297.000000)">
                <g id="Group-33" transform="translate(13.000000, 0.000000)">
                    <g id="noun_Laptop_1945341_000000" transform="translate(25.000000, 38.000000)">
                        <path d="M50.121519,0.0294936709 L9.87848101,0.0294936709 C8.1321519,0.0294936709 6.7164557,1.44531646 6.7164557,3.19151899 L6.7164557,27.8882278 L53.2835443,27.8882278 L53.2835443,3.19164557 C53.2835443,1.44531646 51.8679747,0.0294936709 50.121519,0.0294936709 Z" id="Shape"></path>
                        <g id="Group" transform="translate(0.000000, 28.860759)">
                            <path d="M23.2139241,3.25746835 L36.7860759,3.25746835 C37.7626582,3.25746835 38.5544304,2.4656962 38.5544304,1.48911392 L38.5544304,0.0402531646 L21.4455696,0.0402531646 L21.4455696,1.48911392 C21.4455696,2.4656962 22.2372152,3.25746835 23.2139241,3.25746835 Z" id="Shape"></path>
                            <path d="M39.5037975,0.0402531646 L39.5037975,1.48911392 C39.5037975,2.98759494 38.2846835,4.20683544 36.7860759,4.20683544 L23.2139241,4.20683544 C21.715443,4.20683544 20.4962025,2.98772152 20.4962025,1.48911392 L20.4962025,0.0402531646 L0.0746835443,0.0402531646 L0.0746835443,2.63113924 C0.0746835443,4.37746835 1.49037975,5.79316456 3.23670886,5.79316456 L56.7632911,5.79316456 C58.5096203,5.79316456 59.9253165,4.37734177 59.9253165,2.63113924 L59.9253165,0.0402531646 L39.5037975,0.0402531646 Z" id="Shape"></path>
                        </g>
                    </g>
                </g>
            </g>
        </g>
    </g>
</svg>