<?xml version="1.0" encoding="UTF-8"?>
<svg width="49px" height="60px" viewBox="0 0 49 60" version="1.1" xmlns="http://www.w3.org/2000/svg" xmlns:xlink="http://www.w3.org/1999/xlink">
    <!-- Generator: Sketch 52.2 (67145) - http://www.bohemiancoding.com/sketch -->
    <title>noun_account_1341803_000000</title>
    <desc>Created with Sketch.</desc>
    <g id="Inflections" stroke="none" stroke-width="1" fill="none" fill-rule="evenodd">
        <g id="T04_MANASQUAN_Client_Services_T_Landscape" transform="translate(-375.000000, -1072.000000)" fill="#666666" fill-rule="nonzero">
            <g id="Group-39" transform="translate(336.000000, 1047.000000)">
                <g id="Group-27" transform="translate(9.000000, 0.000000)">
                    <g id="noun_account_1341803_000000" transform="translate(30.000000, 25.000000)">
                        <polygon id="Shape" points="41.274 0 16.3494 7.5114 41.274 7.5114"></polygon>
                        <path d="M41.274,12.3078 L0.4356,12.3078 L0.3942,12.3078 L0.3942,60 L48.8052,60 L48.8052,12.3078 L41.274,12.3078 Z M29.0214,30.3234 C29.0214,32.7618 27.0378,34.7454 24.6,34.7454 C22.1622,34.7454 20.1786,32.7618 20.1786,30.3234 C20.1786,27.8856 22.1622,25.902 24.6,25.902 C27.0378,25.902 29.0214,27.8856 29.0214,30.3234 Z M32.8434,47.1852 L16.3566,47.1852 L16.3566,43.4382 C16.3566,40.2978 18.9114,37.743 22.0518,37.743 L27.1476,37.743 C30.288,37.743 32.8428,40.2978 32.8428,43.4382 L32.8428,47.1852 L32.8434,47.1852 Z" id="Shape"></path>
                    </g>
                </g>
            </g>
        </g>
    </g>
</svg>