<?xml version="1.0" encoding="UTF-8"?>
<svg width="60px" height="57px" viewBox="0 0 60 57" version="1.1" xmlns="http://www.w3.org/2000/svg" xmlns:xlink="http://www.w3.org/1999/xlink">
    <!-- Generator: Sketch 52.2 (67145) - http://www.bohemiancoding.com/sketch -->
    <title>noun_checkbook_143803_000000</title>
    <desc>Created with Sketch.</desc>
    <g id="Inflections" stroke="none" stroke-width="1" fill="none" fill-rule="evenodd">
        <g id="T04_MANASQUAN_Client_Services_T_Landscape" transform="translate(-370.000000, -824.000000)" fill="#666666" fill-rule="nonzero">
            <g id="Group-21" transform="translate(345.000000, 797.000000)">
                <g id="Group-13">
                    <g id="noun_checkbook_143803_000000" transform="translate(25.000000, 27.000000)">
                        <path d="M58.3333333,47.6955882 C59,47.6955882 59.5833333,47.1088235 59.5833333,46.4382353 L59.5833333,21.2911765 C59.5833333,20.6205882 59,20.0338235 58.3333333,20.0338235 L37.25,20.0338235 C36.75,20.0338235 36.3333333,19.6147059 36.3333333,19.1117647 L36.3333333,1.425 C36.3333333,0.586764706 35.25,0.167647059 34.75,0.838235294 C25,11.9867647 16,17.3514706 9.83333333,20.0338235 C9.75,20.1176471 9.58333333,20.1176471 9.5,20.1176471 L6.83333333,20.1176471 L1.66666667,20.1176471 C1,20.1176471 0.416666667,20.7044118 0.416666667,21.375 L0.416666667,46.5220588 L0.416666667,55.3235294 C0.416666667,55.9941176 1,56.5808824 1.66666667,56.5808824 L6.83333333,56.5808824 L58.3333333,56.5808824 C59,56.5808824 59.5833333,55.9941176 59.5833333,55.3235294 C59.5833333,54.6529412 59,54.0661765 58.3333333,54.0661765 L9.08333333,54.0661765 C8.58333333,54.0661765 8.16666667,53.6470588 8.16666667,53.1441176 C8.16666667,52.6411765 8.58333333,52.2220588 9.08333333,52.2220588 L58.3333333,52.2220588 C59,52.2220588 59.5833333,51.6352941 59.5833333,50.9647059 C59.5833333,50.2941176 59,49.7073529 58.3333333,49.7073529 L9.08333333,49.7073529 C8.58333333,49.7073529 8.16666667,49.2882353 8.16666667,48.7852941 C8.16666667,48.2823529 8.58333333,47.8632353 9.08333333,47.8632353 L58.3333333,47.8632353 L58.3333333,47.6955882 Z M57.0833333,23.5544118 L57.0833333,44.2588235 C57.0833333,44.7617647 56.6666667,45.1808824 56.1666667,45.1808824 L8.5,45.1808824 C8.25,45.1808824 8.08333333,45.0132353 8.08333333,44.7617647 C8.08333333,44.5941176 8.16666667,44.4264706 8.41666667,44.3426471 C26.5,39.1455882 34.25,28.3323529 36,25.5661765 C36.25,25.1470588 36.4166667,24.6441176 36.4166667,24.225 L36.4166667,23.5544118 C36.4166667,23.0514706 36.8333333,22.6323529 37.3333333,22.6323529 L56.1666667,22.6323529 C56.6666667,22.6323529 57.0833333,23.0514706 57.0833333,23.5544118 Z" id="Shape"></path>
                    </g>
                </g>
            </g>
        </g>
    </g>
</svg>