<?xml version="1.0" encoding="UTF-8"?>
<svg width="71px" height="71px" viewBox="0 0 71 71" version="1.1" xmlns="http://www.w3.org/2000/svg" xmlns:xlink="http://www.w3.org/1999/xlink">
    <!-- Generator: Sketch 52.4 (67378) - http://www.bohemiancoding.com/sketch -->
    <title>noun_Money Transfer_1198982_000000</title>
    <desc>Created with Sketch.</desc>
    <g id="Page-1" stroke="none" stroke-width="1" fill="none" fill-rule="evenodd">
        <g id="T03_MANASQUAN_Digital_Services" transform="translate(-297.000000, -1162.000000)" fill="#666666">
            <g id="Group-20" transform="translate(242.000000, 1120.000000)">
                <g id="noun_Money-Transfer_1198982_000000" transform="translate(55.000000, 42.000000)">
                    <path d="M61.3142857,14.0952381 L56.3809524,19.0285714 C65.1904762,27.8380952 65.1904762,42.6380952 56.3809524,51.447619 L61.3142857,56.3809524 C73.2952381,44.752381 73.2952381,25.7238095 61.3142857,14.0952381 Z" id="Path"></path>
                    <path d="M51.8,21.4952381 L46.8666667,26.4285714 C51.8,31.3619048 51.8,39.1142857 46.8666667,44.047619 L51.8,48.9809524 C59.2,41.2285714 59.2,29.247619 51.8,21.4952381 Z" id="Path"></path>
                    <path d="M35.2380952,3.87619048 L35.2380952,0.352380952 L7.04761905,0.352380952 L7.04761905,3.87619048 C7.04761905,5.63809524 5.63809524,7.4 3.52380952,7.4 L0,7.4 L0,63.4285714 L3.52380952,63.4285714 C5.28571429,63.4285714 7.04761905,64.8380952 7.04761905,66.952381 L7.04761905,70.4761905 L35.2380952,70.4761905 L35.2380952,66.952381 C35.2380952,65.1904762 36.647619,63.4285714 38.7619048,63.4285714 L42.2857143,63.4285714 L42.2857143,7.4 L38.7619048,7.4 C36.647619,7.4 35.2380952,5.63809524 35.2380952,3.87619048 Z M35.2380952,56.7333333 C32.4190476,57.7904762 29.952381,60.2571429 28.8952381,63.0761905 L13.7428571,63.0761905 C12.6857143,60.2571429 10.2190476,57.7904762 7.4,56.7333333 L7.4,13.7428571 C10.2190476,12.6857143 12.6857143,10.2190476 13.7428571,7.4 L28.8952381,7.4 C29.952381,10.2190476 32.4190476,12.6857143 35.2380952,13.7428571 L35.2380952,56.7333333 Z" id="Shape" fill-rule="nonzero"></path>
                    <path d="M21.1428571,28.1904762 C17.2666667,28.1904762 14.0952381,31.3619048 14.0952381,35.2380952 C14.0952381,39.1142857 17.2666667,42.2857143 21.1428571,42.2857143 C25.0190476,42.2857143 28.1904762,39.1142857 28.1904762,35.2380952 C28.1904762,31.3619048 25.0190476,28.1904762 21.1428571,28.1904762 Z" id="Path"></path>
                </g>
            </g>
        </g>
    </g>
</svg>