<?xml version="1.0" encoding="UTF-8"?>
<svg width="80px" height="74px" viewBox="0 0 80 74" version="1.1" xmlns="http://www.w3.org/2000/svg" xmlns:xlink="http://www.w3.org/1999/xlink">
    <!-- Generator: Sketch 52.4 (67378) - http://www.bohemiancoding.com/sketch -->
    <title>noun_transaction_1284857_000000</title>
    <desc>Created with Sketch.</desc>
    <g id="Page-1" stroke="none" stroke-width="1" fill="none" fill-rule="evenodd">
        <g id="T03_MANASQUAN_Digital_Services" transform="translate(-1233.000000, -910.000000)" fill="#666666">
            <g id="Group-21" transform="translate(1195.000000, 862.000000)">
                <g id="noun_transaction_1284857_000000" transform="translate(38.000000, 48.000000)">
                    <polygon id="Path" points="16.2082138 0.201531915 16.2082138 10.370234 63.2415636 10.370234 69.5370609 10.370234 69.5370609 16.6681064 69.5370609 31.6908936 79.1687284 31.6908936 79.1687284 0.201531915"></polygon>
                    <path d="M20.0265215,16.6681064 L0,16.6681064 L0,46.189383 L27.686096,46.189383 L27.686096,58.729234 L22.1395349,53.1815957 L16.574765,58.7473404 L31.6215735,73.7984681 L46.668382,58.7473404 L41.1044038,53.1815957 L35.557051,58.729234 L35.557051,46.189383 L63.2423553,46.189383 L63.2423553,31.6908936 L63.2423553,16.6681064 L20.0265215,16.6681064 Z M31.6207818,36.4142979 C29.1610094,36.4142979 27.1612073,34.4131489 27.1612073,31.9530426 C27.1612073,29.4929362 29.1618011,27.4917872 31.6207818,27.4917872 C34.0797625,27.4917872 36.0803563,29.4929362 36.0803563,31.9530426 C36.0803563,34.4131489 34.0797625,36.4142979 31.6207818,36.4142979 Z" id="Shape" fill-rule="nonzero"></path>
                </g>
            </g>
        </g>
    </g>
</svg>