<?xml version="1.0" encoding="UTF-8"?>
<svg width="84px" height="83px" viewBox="0 0 84 83" version="1.1" xmlns="http://www.w3.org/2000/svg" xmlns:xlink="http://www.w3.org/1999/xlink">
    <!-- Generator: Sketch 52.4 (67378) - http://www.bohemiancoding.com/sketch -->
    <title>noun_Financial market_693268_000000</title>
    <desc>Created with Sketch.</desc>
    <defs>
        <filter x="-15.8%" y="-15.6%" width="131.6%" height="131.2%" filterUnits="objectBoundingBox" id="filter-1">
            <feOffset dx="0" dy="2" in="SourceAlpha" result="shadowOffsetOuter1"></feOffset>
            <feGaussianBlur stdDeviation="2" in="shadowOffsetOuter1" result="shadowBlurOuter1"></feGaussianBlur>
            <feColorMatrix values="0 0 0 0 0   0 0 0 0 0   0 0 0 0 0  0 0 0 0.5 0" type="matrix" in="shadowBlurOuter1" result="shadowMatrixOuter1"></feColorMatrix>
            <feMerge>
                <feMergeNode in="shadowMatrixOuter1"></feMergeNode>
                <feMergeNode in="SourceGraphic"></feMergeNode>
            </feMerge>
        </filter>
    </defs>
    <g id="Page-1" stroke="none" stroke-width="1" fill="none" fill-rule="evenodd">
        <g id="T03_MANASQUAN_Rates" transform="translate(-1100.000000, -900.000000)" fill="#666666">
            <g id="noun_Financial-market_693268_000000" filter="url(#filter-1)" transform="translate(1104.000000, 901.000000)">
                <path d="M38,21.7777778 C29.0056484,21.7777778 21.7142857,29.0904602 21.7142857,38.1111111 C21.7142857,47.131762 29.0056484,54.4444444 38,54.4444444 C46.9943516,54.4444444 54.2857143,47.131762 54.2857143,38.1111111 C54.2857143,33.7792418 52.5699029,29.6247945 49.515739,26.5617004 C46.4615751,23.4986062 42.31924,21.7777778 38,21.7777778 Z M39.3183673,47.5377778 L39.3183673,50.0577778 L37.4881633,50.0577778 L37.4881633,47.6388889 C34.8514286,47.3355556 33.362449,46.2311111 32.1061224,43.9055556 L34.3473469,41.7355556 C35.0530612,43.12 36.1853061,44.4344444 37.8681633,44.4344444 C38.4134801,44.4411994 38.9445794,44.2599877 39.3726531,43.9211111 C39.9852841,43.4278233 40.3371594,42.6789779 40.3265306,41.8911111 C40.3265306,40.7322222 39.5510204,40.0944444 38.5273469,39.5577778 C37.9844898,39.27 37.3718367,39.0133333 36.7591837,38.7177778 C34.9755102,37.8622222 33.1918367,36.75 33.1918367,33.8488889 C33.0326821,31.2077438 34.9042241,28.8791677 37.5114286,28.4744444 L37.5114286,26.1411111 L39.3183673,26.1411111 L39.3183673,28.4744444 C40.8980471,28.5982109 42.3517635,29.3865302 43.32,30.6444444 L41.6371429,33.04 C40.9986844,32.113916 39.9666103,31.5388649 38.8453061,31.4844444 C37.7073261,31.4450088 36.7511299,32.3345087 36.704898,33.4755556 C36.704898,35.0311111 38.5118367,35.5444444 40.3032653,36.4233333 L40.3963265,36.47 C41.521478,36.9487675 42.4872395,37.7392842 43.1804082,38.7488889 C43.6768457,39.593185 43.9242485,40.5614164 43.8938776,41.5411111 C44.0599471,44.3956899 42.1112742,46.9396844 39.3183673,47.5144444 L39.3183673,47.5377778 Z" id="Shape" fill-rule="nonzero"></path>
                <path d="M41.2571429,56.5677778 C39.1027137,56.9531571 36.8972863,56.9531571 34.7428571,56.5677778 L34.7428571,62.6811111 L29.8804082,62.6811111 L38,76.7822222 L46.1195918,62.6811111 L41.2571429,62.6811111 L41.2571429,56.5677778 Z" id="Path"></path>
                <path d="M34.7428571,19.5922222 C36.8972863,19.2068429 39.1027137,19.2068429 41.2571429,19.5922222 L41.2571429,14.6611111 L46.1195918,14.6611111 L38,0.56 L29.8804082,14.6611111 L34.7428571,14.6611111 L34.7428571,19.5922222 Z" id="Path"></path>
                <path d="M19.4730612,35.4044444 L14.0444898,35.4044444 L14.0444898,30.5277778 L0,38.6711111 L14.06,46.8144444 L14.06,41.9377778 L19.6746939,41.9377778 C19.2272752,39.788556 19.1590312,37.5773038 19.4730612,35.4044444 Z" id="Path"></path>
                <path d="M76,38.6711111 L61.94,30.5277778 L61.94,35.4044444 L56.5114286,35.4044444 C56.8254586,37.5773038 56.7572146,39.788556 56.3097959,41.9377778 L61.9244898,41.9377778 L61.9244898,46.8144444 L76,38.6711111 Z" id="Path"></path>
            </g>
        </g>
    </g>
</svg>