<?xml version="1.0" encoding="UTF-8"?>
<svg width="70px" height="68px" viewBox="0 0 70 68" version="1.1" xmlns="http://www.w3.org/2000/svg" xmlns:xlink="http://www.w3.org/1999/xlink">
    <!-- Generator: Sketch 52.4 (67378) - http://www.bohemiancoding.com/sketch -->
    <title>noun_Sell House_1672584_000000</title>
    <desc>Created with Sketch.</desc>
    <g id="Page-1" stroke="none" stroke-width="1" fill="none" fill-rule="evenodd">
        <g id="T03_MANASQUAN_Rates" transform="translate(-765.000000, -1163.000000)" fill="#666666">
            <g id="Group-21" transform="translate(706.000000, 1120.000000)">
                <g id="Group-13" transform="translate(17.000000, 0.000000)">
                    <g id="noun_Sell-House_1672584_000000" transform="translate(42.000000, 42.000000)">
                        <path d="M0.735082979,50.2059555 L0.735082979,68.7757341 L11.6647001,68.7757341 L11.6647001,50.2059555 L0.735082979,50.2059555 Z M3.28692569,67.8348024 C2.37931706,67.8348024 1.64346773,67.0989767 1.64346773,66.1912902 C1.64346773,65.2836037 2.37931706,64.5477725 3.28692569,64.5477725 C4.19461088,64.5477725 4.93046021,65.2836037 4.93046021,66.1912902 C4.93046021,67.0989767 4.19461088,67.8348024 3.28692569,67.8348024 Z" id="Shape" fill-rule="nonzero"></path>
                        <g id="Group" transform="translate(13.125000, 0.000000)">
                            <path d="M50.1279497,49.5039535 C48.3065517,50.0210215 40.2472328,51.5890869 36.8650348,52.438016 C37.0285176,53.2834681 37.1668219,54.8506436 36.3635102,56.2022099 C35.6948145,57.3266515 34.5489159,58.0436962 32.9566008,58.333122 C31.7466599,58.5530648 30.3206649,58.6301638 28.8147726,58.6301638 C26.9348898,58.6301638 24.9306606,58.5101678 23.0638399,58.3985608 C20.6598185,58.2546266 18.3885409,58.118303 17.3778786,58.3292334 L17.0533217,56.7711147 C18.2710315,56.5169701 20.5363982,56.6526708 23.1589687,56.8096614 C26.4306446,57.0052044 30.1397359,57.227172 32.6718366,56.7672261 C33.787266,56.5643788 34.5675687,56.1030365 34.9909874,55.3959442 C35.5956406,54.3862693 35.3861121,53.0857722 35.2638185,52.5586574 C33.9870815,48.7161685 25.8726045,51.4501318 17.0286826,49.1861558 C10.6896468,47.5634106 8.93804348,48.4380858 4.16369348,50.8263859 C2.86006438,51.4785148 1.52566021,51.8658456 0.400592792,52.0959187 L0.400592792,66.527691 C14.8796235,64.9481599 28.937956,66.1792351 32.3367099,64.1966296 C45.6739588,56.4165783 51.7782096,55.6292772 55.2575949,53.4266123 C57.9630088,51.7139061 53.9306903,48.424406 50.1279497,49.5039535 Z" id="Path"></path>
                            <g transform="translate(5.833333, 0.000000)" id="Path">
                                <polygon points="38.8323807 15.1390425 38.8323807 4.47744456 39.5879221 4.47744456 39.5879221 2.39956398 31.7653131 2.39956398 31.7653131 4.47744456 32.5827161 4.47744456 32.5827161 9.33476527 23.849856 1.22426588 0.981814896 22.462608 6.06905862 22.462608 23.8498839 5.94895817 41.6307092 22.462608 46.717914 22.462608"></polygon>
                                <polygon points="23.8498784 7.95068823 8.22436767 22.4625941 8.22436767 43.4914549 18.5972825 43.4914549 18.5972825 29.5411301 29.102474 29.5411301 29.102474 43.4914549 32.0130659 43.4914549 39.4753861 43.4914549 39.4753861 25.7701799 39.4753861 22.4625941"></polygon>
                            </g>
                        </g>
                    </g>
                </g>
            </g>
        </g>
    </g>
</svg>