<?xml version="1.0" encoding="UTF-8"?>
<svg width="67px" height="80px" viewBox="0 0 67 80" version="1.1" xmlns="http://www.w3.org/2000/svg" xmlns:xlink="http://www.w3.org/1999/xlink">
    <!-- Generator: Sketch 52.4 (67378) - http://www.bohemiancoding.com/sketch -->
    <title>noun_User_166432_000000</title>
    <desc>Created with Sketch.</desc>
    <g id="Page-1" stroke="none" stroke-width="1" fill="none" fill-rule="evenodd">
        <g id="T03_MANASQUAN_Rates" transform="translate(-433.000000, -899.000000)" fill="#666666" fill-rule="nonzero">
            <g id="Group-20" transform="translate(332.000000, 862.000000)">
                <g id="Group-19" transform="translate(57.000000, 0.000000)">
                    <g id="noun_User_166432_000000" transform="translate(44.000000, 37.000000)">
                        <path d="M65.9191304,69.7 C58.8252174,69.7 51.7356522,69.7 44.6478261,69.7 C44.6478261,63.1843478 39.366087,57.9026087 32.8504348,57.9026087 C26.3347826,57.9026087 21.0530435,63.1843478 21.0530435,69.7 C14.0930435,69.7 7.13217391,69.7 0.166956522,69.7 C-0.0704347826,68.8304348 -0.0113043478,67.9356522 0.0982608696,67.0478261 C0.268695652,65.6678261 0.691304348,64.353913 1.25043478,63.0843478 C1.91391304,61.58 3.12173913,60.5765217 4.4373913,59.686087 C6.83391304,58.0652174 9.49217391,56.9686957 12.1452174,55.8608696 C14.0530435,55.0643478 15.9721739,54.2947826 17.873913,53.4852174 C23.2643478,51.0591304 23.9826087,49.2026087 24.0652174,48.9104348 C24.1043478,48.7408696 24.1321739,48.5669565 24.1495652,48.3895652 C24.1878261,47.9852174 24.2182609,47.5808696 24.2452174,47.1756522 L24.2452174,46.126087 C12.5947826,46.2295652 9.16347826,41.2365217 9.16347826,41.2365217 C9.16347826,41.2365217 15.8208696,41.1330435 15.4086957,23.5626087 C14.9956522,5.99043478 23.0965217,3.08956522 26.1156522,1.94 C34.9086957,-1.40347826 39.3269565,3.91391304 39.3269565,3.91391304 C49.5191304,2.97130435 52.3321739,14.106087 51.08,26.7878261 C49.8278261,39.4695652 56.7947826,41.4426087 56.7947826,41.4426087 C52.0078261,46.3321739 41.9191304,46.0234783 41.9191304,46.0234783 L41.9191304,48.1782609 C41.9252174,48.2486957 41.9304348,48.32 41.9373913,48.3904348 C41.953913,48.5669565 41.9826087,48.7408696 42.0217391,48.9113043 C42.1034783,49.2034783 42.8217391,51.06 48.2130435,53.486087 C50.1147826,54.2956522 52.033913,55.0652174 53.9417391,55.8617391 C56.593913,56.9686957 59.2530435,58.066087 61.6495652,59.6869565 C62.9652174,60.5765217 64.173913,61.58 64.8365217,63.0852174 C65.3956522,64.3547826 65.8182609,65.6686957 65.9886957,67.0486957 C66.0973913,67.9356522 66.1573913,68.8304348 65.9191304,69.7 Z M42.3165217,69.7 C42.3165217,74.9269565 38.0791304,79.1643478 32.8521739,79.1643478 C27.6252174,79.1643478 23.3878261,74.9269565 23.3878261,69.7 C23.3878261,64.4730435 27.6252174,60.2356522 32.8521739,60.2356522 C38.0791304,60.2356522 42.3165217,64.4730435 42.3165217,69.7 Z M39.1547826,66.9513043 C39.1521739,66.1730435 38.7156522,65.6286957 38.093913,65.513913 C37.6121739,65.4252174 37.1956522,65.5582609 36.8443478,65.9104348 C35.1217391,67.6382609 33.3965217,69.3634783 31.6686957,71.086087 C31.3078261,71.446087 31.4286957,71.4617391 31.0365217,71.0782609 C30.3443478,70.4008696 29.6695652,69.7052174 28.9834783,69.0217391 C28.6713043,68.7104348 28.293913,68.5391304 27.8469565,68.5991304 C27.2895652,68.6747826 26.8991304,68.9808696 26.7269565,69.5226087 C26.5591304,70.0504348 26.7008696,70.5104348 27.0869565,70.8965217 C28.2982609,72.1095652 29.5104348,73.3208696 30.7234783,74.5313043 C31.0895652,74.8965217 31.6095652,74.8965217 31.9808696,74.5356522 C32.1826087,74.3391304 32.38,74.1382609 32.5791304,73.9391304 C34.6269565,71.8913043 36.673913,69.8417391 38.7252174,67.7956522 C39.0008696,67.5226087 39.1513043,67.2026087 39.1547826,66.9513043 Z" id="Shape"></path>
                    </g>
                </g>
            </g>
        </g>
    </g>
</svg>