<?xml version="1.0" encoding="UTF-8"?>
<svg width="48px" height="80px" viewBox="0 0 48 80" version="1.1" xmlns="http://www.w3.org/2000/svg" xmlns:xlink="http://www.w3.org/1999/xlink">
    <!-- Generator: Sketch 52.4 (67378) - http://www.bohemiancoding.com/sketch -->
    <title>noun_adress ok_1661297_000000</title>
    <desc>Created with Sketch.</desc>
    <g id="Page-1" stroke="none" stroke-width="1" fill="none" fill-rule="evenodd">
        <g id="T03_MANASQUAN_Mobile_Services" transform="translate(-1117.000000, -900.000000)" fill="#666666">
            <g id="Group-22" transform="translate(1061.000000, 862.000000)">
                <g id="Group-12" transform="translate(3.020987, 0.000000)">
                    <g id="noun_adress-ok_1661297_000000" transform="translate(52.000000, 37.000000)">
                        <g id="noun_mobile-money_1955785_000000" transform="translate(0.878319, 0.878319)">
                            <path d="M34.0421053,30.1935484 C31.4631579,27.6129032 27.9815789,26.0645161 24.2421053,26.0645161 C16.5052632,26.0645161 10.3157895,32.2580645 10.3157895,39.8709677 C10.3157895,43.6129032 11.7342105,47.0967742 14.3131579,49.6774194 C16.8921053,52.2580645 20.3736842,53.8064516 24.1131579,53.8064516 C31.7210526,53.8064516 38.0394737,47.6129032 38.0394737,40 C38.0394737,36.3870968 36.6210526,32.9032258 34.0421053,30.1935484 Z M29.4,44.516129 C29.1421053,46.3225806 28.1105263,47.483871 26.4342105,48.1290323 C25.9184211,48.2580645 25.5315789,48.3870968 25.0157895,48.6451613 L25.0157895,50.5806452 L23.2105263,50.5806452 L23.2105263,48.7741935 C22.5657895,48.6451613 21.9210526,48.6451613 21.4052632,48.516129 C20.6315789,48.3870968 19.8578947,48.1290323 19.2131579,47.7419355 C19.0842105,47.6129032 18.9552632,47.483871 19.0842105,47.3548387 C19.3421053,46.8387097 19.4710526,46.3225806 19.6,45.8064516 C19.7289474,45.9354839 19.8578947,45.9354839 19.9868421,46.0645161 C21.1473684,46.7096774 22.4368421,47.0967742 23.7263158,46.9677419 C24.2421053,46.9677419 24.7578947,46.8387097 25.1447368,46.7096774 C27.2078947,45.9354839 27.4657895,43.3548387 25.7894737,42.0645161 C25.1447368,41.5483871 24.2421053,41.1612903 23.4684211,40.7741935 C22.4368421,40.3870968 21.4052632,39.8709677 20.6315789,39.2258065 C18.5684211,37.5483871 18.8263158,34.3225806 20.8894737,32.7741935 C21.5342105,32.2580645 22.3078947,31.8709677 23.0815789,31.7419355 C23.2105263,31.7419355 23.3394737,31.7419355 23.4684211,31.6129032 L23.4684211,29.6774194 L25.1447368,29.6774194 L25.1447368,31.3548387 C25.7894737,31.483871 26.4342105,31.483871 27.0789474,31.7419355 C27.5947368,31.8709677 28.1105263,32.1290323 28.6263158,32.3870968 C28.6263158,32.3870968 28.7552632,32.516129 28.7552632,32.6451613 C28.4973684,33.1612903 28.3684211,33.8064516 28.1105263,34.3225806 C27.4657895,33.9354839 26.6921053,33.6774194 25.9184211,33.5483871 C25.0157895,33.4193548 24.1131579,33.2903226 23.2105263,33.6774194 C22.3078947,33.9354839 21.6631579,34.5806452 21.5342105,35.483871 C21.4052632,36.3870968 21.6631579,37.1612903 22.4368421,37.6774194 C23.0815789,38.0645161 23.8552632,38.4516129 24.6289474,38.7096774 C25.5315789,39.0967742 26.5631579,39.483871 27.3368421,40.1290323 C29.0131579,41.1612903 29.6578947,42.5806452 29.4,44.516129 Z" id="Shape" fill-rule="nonzero"></path>
                            <path d="M42.5526316,0.129032258 L5.80263158,0.129032258 C2.70789474,0.129032258 0.257894737,2.58064516 0.257894737,5.67741935 L0.257894737,74.3225806 C0.257894737,77.4193548 2.70789474,79.8709677 5.80263158,79.8709677 L42.5526316,79.8709677 C45.6473684,79.8709677 48.0973684,77.4193548 48.0973684,74.3225806 L48.0973684,5.67741935 C48.0973684,2.58064516 45.5184211,0.129032258 42.5526316,0.129032258 Z M24.2421053,77.1612903 C22.05,77.1612903 20.2447368,75.3548387 20.2447368,73.1612903 C20.2447368,70.9677419 22.05,69.1612903 24.2421053,69.1612903 C26.4342105,69.1612903 28.2394737,70.9677419 28.2394737,73.1612903 C28.2394737,75.3548387 26.4342105,77.1612903 24.2421053,77.1612903 Z M43.3263158,66.3225806 L5.02894737,66.3225806 L5.02894737,13.6774194 L43.1973684,13.6774194 L43.1973684,66.3225806 L43.3263158,66.3225806 Z" id="Shape" fill-rule="nonzero"></path>
                            <path d="M24.2421053,70.8387097 C22.9526316,70.8387097 21.9210526,71.8709677 21.9210526,73.1612903 C21.9210526,74.4516129 22.9526316,75.483871 24.2421053,75.483871 C25.5315789,75.483871 26.5631579,74.4516129 26.5631579,73.1612903 C26.5631579,71.8709677 25.5315789,70.8387097 24.2421053,70.8387097 Z" id="Path"></path>
                        </g>
                    </g>
                </g>
            </g>
        </g>
    </g>
</svg>